<svg xmlns="http://www.w3.org/2000/svg" width="56" height="10pt" viewBox="0 0 42 10"><g fill-rule="evenodd"><path d="M4.918 5.285c0 2.156.004 3.297.016 3.293.011-.004.308-.3.668-.66l.644-.656V3.305l-.113-.114a.51.51 0 0 1-.102-.128c.008-.012.004-.012-.004-.008-.011.007-.257-.23-.55-.528a17.03 17.03 0 0 0-.547-.543c-.008 0-.012 1.485-.012 3.301m23.437-1.922c-.03.004-.058.016-.058.028 0 .011-.04.015-.121.007-.074-.003-.125-.003-.125.008 0 .008-.028.016-.059.016h-.062v4.36l.32.011c.5.02 1.402.004 1.438-.023.015-.016.046-.02.078-.012.039.008.054.004.054-.012 0-.012.016-.016.055-.008.027.004.047.004.043-.008-.008-.007.027-.02.078-.027.047-.008.086-.02.086-.027 0-.008.023-.02.047-.024a1.62 1.62 0 0 0 .285-.136.969.969 0 0 0 .324-.309.755.755 0 0 1 .055-.094.233.233 0 0 0 .035-.082c.004-.035.016-.062.027-.062.008 0 .008-.012.004-.028-.007-.015 0-.035.012-.046.02-.012.024-.075.024-.301-.004-.36-.004-.371-.028-.371-.012 0-.015-.016-.008-.035.004-.02 0-.036-.007-.036-.008 0-.02-.023-.024-.054-.008-.028-.02-.051-.027-.051-.008 0-.02-.016-.028-.035a.29.29 0 0 0-.054-.09c-.024-.027-.035-.055-.024-.055.012 0 .016-.008.008-.015-.004-.012-.015-.016-.023-.012-.008.008-.051-.027-.098-.078a.589.589 0 0 0-.078-.078c0 .007-.024-.008-.055-.036a.382.382 0 0 0-.086-.054c-.02-.008-.035-.02-.035-.028 0-.007-.012-.015-.027-.015-.016 0-.024-.008-.02-.02.008-.008.004-.02-.008-.027-.015-.008-.015-.004-.007.008.007.011 0 .02-.016.02s-.023-.009-.02-.016c.008-.012 0-.016-.015-.008-.016.004-.027.004-.027-.008 0-.008-.028-.023-.063-.027-.031-.008-.059-.02-.059-.028s-.015-.011-.035-.008c-.07.02-.035-.042.051-.09.137-.074.387-.347.371-.406 0-.007.004-.011.012-.011.012 0 .023-.024.027-.055.008-.027.02-.047.028-.043.011.004.011-.004.007-.02-.007-.015-.004-.035.008-.039.047-.03.063-.535.016-.562a.024.024 0 0 1-.004-.027c.008-.012 0-.032-.008-.043-.012-.016-.016-.036-.012-.043.008-.012.004-.02-.004-.02-.007 0-.027-.031-.039-.07-.011-.04-.03-.07-.039-.07-.011 0-.011-.008-.008-.012.008-.008-.003-.024-.023-.04-.02-.011-.031-.034-.031-.046.008-.027-.09-.125-.121-.121-.008.004-.035-.016-.055-.043-.02-.024-.035-.04-.035-.035 0 .007-.024-.004-.047-.024a.19.19 0 0 0-.07-.035c-.016 0-.024-.008-.024-.02 0-.011-.008-.011-.02-.007-.007.007-.015.004-.015-.004 0-.012-.035-.028-.078-.04-.047-.011-.082-.03-.082-.038 0-.012-.012-.012-.031-.008-.02.008-.04.004-.043-.004-.008-.012-.055-.023-.11-.031-.05-.008-.093-.02-.093-.028 0-.007-.036-.011-.079-.004-.043.004-.082.004-.085-.007-.008-.008-.192-.016-.47-.012-.253.004-.472 0-.488-.008-.015-.008-.05-.008-.082-.008m10.25 2.258v2.254l.208-.008.203-.004v-.875c0-.476.004-.87.004-.87l.07.07c.187.19.27.28.27.3 0 .012.007.02.019.02.031 0 .129.105.121.133-.004.007 0 .011.008.004.015-.016.347.308.59.57a.607.607 0 0 0 .136.129c.016-.004.325.3.383.379.02.027.031.039.024.027-.008-.016.027.004.078.047l.086.074h.265c.145 0 .266-.004.266-.012 0-.007-.078-.093-.176-.191a.997.997 0 0 1-.164-.191c.008-.012.004-.012-.008-.004-.015.007-.027 0-.031-.024-.008-.02-.016-.035-.023-.031-.008.008-.032-.016-.051-.043-.024-.027-.051-.05-.063-.05-.03 0-.101-.083-.086-.098.008-.008.004-.012-.007-.004-.02.011-.434-.399-.43-.426 0-.008-.016-.027-.035-.04a.308.308 0 0 1-.051-.05c-.008-.016-.035-.031-.059-.043-.027-.008-.039-.023-.03-.035.007-.012.003-.016-.009-.008-.031.02-.465-.426-.449-.453.008-.012.008-.016-.004-.008-.012.004-.035-.008-.05-.031a.187.187 0 0 0-.079-.066c-.027-.012-.05-.028-.05-.04 0-.007.007-.007.019-.003.012.007.016.007.008-.008C39.5 6 39.488 5.996 39.48 6c-.007.008-.02.004-.027-.008-.012-.023.074-.105.11-.105.011 0 .023-.008.023-.012 0-.02.11-.086.129-.078.008 0 .008-.004.004-.012-.004-.012.011-.027.039-.043a.191.191 0 0 0 .058-.047c.008-.011.024-.023.036-.023.011 0 .035-.016.054-.035.016-.02.04-.032.047-.024.008.004.016.004.016-.008 0-.007.035-.039.074-.066a.487.487 0 0 0 .098-.078c.011-.016.02-.02.02-.012.003.008.01.004.023-.004.082-.07.207-.164.207-.152 0 .004.015-.004.03-.023a.462.462 0 0 1 .118-.082.273.273 0 0 0 .074-.06.268.268 0 0 1 .086-.058c.012 0 .024-.011.031-.027.004-.016.02-.023.036-.02.015.008.023.004.02-.003-.005-.008.01-.024.038-.04a.497.497 0 0 0 .098-.074c.066-.062.14-.105.156-.09.008.008.012 0 .012-.015 0-.012.02-.035.043-.047.097-.043.043-.055-.258-.055-.254 0-.309.004-.328.028-.012.015-.024.023-.031.02-.004-.005-.02.003-.036.019-.02.015-.046.039-.066.05-.02.012-.059.043-.094.067a.82.82 0 0 1-.117.074c-.031.02-.058.04-.058.047 0 .012-.012.012-.028.008-.015-.008-.023-.004-.015.004.003.007-.016.027-.04.039a.538.538 0 0 0-.097.074c-.031.023-.059.043-.067.039-.007-.008-.015-.004-.015.004a.301.301 0 0 1-.113.074c-.004 0-.024.016-.043.031-.016.02-.051.043-.07.059-.024.016-.055.043-.075.059-.02.015-.031.027-.031.02 0-.005-.035.015-.074.05-.043.035-.094.07-.118.086a.2.2 0 0 0-.07.047.597.597 0 0 1-.152.109c-.008 0-.004-.008.011-.016.024-.02.024-.02 0-.011-.015.004-.023.015-.023.027.004.008-.016.035-.043.055l-.047.039-.012-1.211-.007-1.211-.203-.008-.208-.004v2.254m-9.23-1.738c.066.012.125.027.133.039.004.008.023.012.039.004.015-.008.027-.004.027.008 0 .011.016.02.035.02a.11.11 0 0 1 .059.023.132.132 0 0 0 .043.027c.023.004.098.074.082.074-.008 0 .012.02.043.047.031.023.055.055.055.07 0 .012.007.024.02.024.007 0 .01.008.007.02-.008.007-.004.015.004.015.012 0 .023.027.031.062.004.036.016.063.024.063.003 0 .007.078.007.168a.945.945 0 0 1-.007.168c-.008 0-.02.031-.024.062-.008.035-.02.063-.031.063-.008 0-.012.008-.008.015.008.012-.027.06-.078.114a.924.924 0 0 0-.086.101c0 .016-.129.078-.145.075-.007 0-.011.007-.011.015 0 .012-.012.016-.028.012-.015-.008-.027-.004-.027.004 0 .011-.031.023-.07.031-.04.004-.074.016-.078.027-.008.008-.043.008-.078.004-.047-.008-.07-.004-.07.008 0 .016-.102.02-.352.02h-.348V3.883h.082a.401.401 0 0 0 .117-.016c.047-.023.473-.008.633.016m3.316.785c0 .008-.03.012-.07.012-.039-.004-.074 0-.082.008a.139.139 0 0 1-.05.011c-.024 0-.048.008-.051.016-.008.012-.024.012-.036.008-.015-.004-.027 0-.027.011 0 .012-.016.02-.035.012-.02-.004-.035-.004-.035.008 0 .008-.024.02-.051.023-.031.008-.055.02-.055.032 0 .007-.008.011-.015.003-.012-.003-.02 0-.02.012s-.008.016-.02.012c-.023-.008-.035 0-.093.055-.016.011-.028.02-.028.011 0-.004-.007 0-.02.008a1.274 1.274 0 0 1-.194.145.236.236 0 0 0-.082.082 1.167 1.167 0 0 1-.141.195c-.008.012-.012.023-.008.023.008 0 0 .012-.012.024-.054.062-.062.078-.054.09.008.004 0 .011-.012.011s-.016.008-.012.024c.008.016.004.027-.004.027-.007 0-.023.035-.035.082-.015.043-.031.078-.039.078s-.02.036-.023.079c-.008.046-.02.078-.028.074-.004-.004-.007.015-.004.043.004.031 0 .054-.011.054-.012 0-.016.02-.008.067.008.043.004.074-.008.082-.027.015-.027.375 0 .39.012.008.016.043.008.09-.008.051-.004.078.008.078.011 0 .015.024.011.055-.003.027 0 .05.004.05.008 0 .02.028.028.06.008.03.015.062.015.066 0 .004.008.02.016.031a.047.047 0 0 1 .004.04c-.008.01-.004.019.008.019.008 0 .02.008.02.02 0 .027.1.23.12.245a.29.29 0 0 1 .047.07c.031.06.34.38.36.372.015-.008.097.047.09.058-.005.008.003.008.019.004.016-.008.027-.004.027.012 0 .012.004.016.012.012.004-.008.027 0 .047.015a.17.17 0 0 0 .066.024c.02 0 .032.008.032.02 0 .007.011.011.027.003.016-.004.027 0 .027.012s.012.016.031.012c.02-.008.04-.004.051.011.008.012.032.024.051.024.164.004.2.008.191.023-.003.008.079.012.184.012a.72.72 0 0 0 .191-.012c0-.004.051-.015.114-.023a.446.446 0 0 0 .14-.028.048.048 0 0 1 .051-.007c.016.004.027.004.027-.008 0-.008.036-.027.079-.04.043-.01.078-.027.078-.038 0-.008.011-.012.023-.012a.281.281 0 0 0 .09-.047c.035-.023.063-.039.063-.035 0 .004.015-.008.035-.027.02-.02.043-.036.058-.036.012 0 .035-.023.055-.054.039-.059.102-.106.086-.059-.008.012 0 .028.012.028.011 0 .015.015.007.054-.007.035-.007.051.004.043.012-.004.024.028.028.074a.806.806 0 0 0 .035.133l.02.047h.187c.117 0 .191-.004.191-.016 0-.011-.011-.02-.02-.02-.015 0-.019-.019-.011-.062.004-.03.004-.062-.004-.062s-.02-.059-.027-.133a.48.48 0 0 0-.028-.14c-.011-.008-.011-.047-.007-.09.007-.055.007-.078-.008-.078-.016 0-.02-.032-.012-.122.008-.082.008-.109-.004-.09-.015.016-.02-.343-.02-1.167V4.699h-.331l.011.051c.004.04.004.055-.011.055-.016 0-.02.015-.012.054.012.07-.008.079-.106.028a.34.34 0 0 0-.105-.047c-.012 0-.023-.008-.023-.016s-.024-.023-.051-.027c-.032-.008-.051-.02-.047-.027.008-.008-.004-.012-.024-.004-.02.004-.035 0-.035-.012 0-.008-.015-.012-.035-.008-.02.004-.035 0-.035-.008 0-.011-.04-.023-.086-.031-.043-.008-.09-.016-.098-.023-.011-.004-.043-.008-.074-.004a.192.192 0 0 1-.078-.012c-.031-.02-.434-.02-.434 0m3.637 0c0 .012-.027.012-.058.008-.036-.008-.063-.004-.063.004s-.035.02-.078.027c-.043.008-.078.02-.078.031 0 .008-.016.012-.035.008-.02-.004-.036-.004-.036.008 0 .008-.023.02-.054.023-.028.008-.051.02-.051.032 0 .007-.008.011-.016.007-.007-.007-.023-.003-.027.008-.008.008-.02.012-.027.008-.012-.008-.016-.004-.016.004s-.023.027-.047.039a.918.918 0 0 0-.117.074c-.035.031-.066.047-.066.04 0-.009-.012.003-.028.027-.011.02-.035.039-.047.039-.007 0-.004-.016.012-.035.031-.036.031-.036-.008-.024-.039.008-.039.008-.027-.094.008-.074.008-.097-.004-.078-.016.02-.02.004-.02-.05v-.075h-.316v3.172h.387V6.695c0-1.074.004-1.175.031-1.218.027-.043.09-.094.113-.094.008 0 .024-.02.04-.043.03-.043.163-.137.187-.133.008.004.012-.004.012-.016 0-.007.015-.011.027-.007.016.003.027.003.027-.004 0-.012.024-.024.051-.028.031-.007.055-.023.055-.03 0-.013.015-.017.035-.013.016.008.035 0 .039-.007.012-.032.656-.032.676 0 .008.011.027.02.043.011.015-.004.027-.004.027.008 0 .008.031.024.066.035.07.02.126.059.188.125.082.086.098.11.086.13-.008.01-.004.015.008.007.02-.012.062.086.058.129-.004.012.004.02.016.02s.016.011.012.027c-.008.015-.004.031.004.035.03.02.035.195.035 1.203v1.04h.199c.168 0 .203-.005.21-.028.02-.055.013-2.172-.007-2.172-.016 0-.016-.02-.012-.059.008-.035.004-.062-.004-.062-.007 0-.02-.035-.027-.082a.2.2 0 0 0-.027-.09c-.008-.004-.012-.016-.008-.027.008-.008.004-.016-.008-.016s-.015-.012-.012-.027c.008-.012.004-.024-.003-.024-.012 0-.024-.02-.032-.043-.004-.02-.015-.043-.023-.047a1.095 1.095 0 0 1-.043-.066.85.85 0 0 0-.297-.281c-.102-.051-.133-.075-.121-.082.004-.008-.008-.008-.027 0-.028.004-.036 0-.036-.024 0-.031-.004-.031-.02-.008-.015.024-.019.024-.03 0-.008-.011-.024-.015-.036-.011-.011.007-.023.004-.027-.008-.008-.008-.035-.016-.062-.016-.032 0-.055-.008-.055-.015 0-.008-.031-.008-.07-.004-.036 0-.067-.004-.067-.012a.579.579 0 0 0-.183-.016.615.615 0 0 0-.188.016m-3.043.437c.004.012.024.016.043.008.016-.008.035-.004.043.004.004.008.05.028.098.04.047.011.093.03.097.042.008.008.02.012.032.008.011-.008.02-.008.02.004 0 .008.023.023.054.027.027.008.047.02.043.028-.008.011 0 .011.015.007.016-.007.028 0 .028.008 0 .012.008.016.015.012.012-.008.02-.004.02.008 0 .008.016.02.035.027.035.012.055 1.57.02 1.57-.008 0-.02.024-.028.055-.004.027-.015.047-.027.043-.008-.004-.012.004-.008.024.008.023-.012.054-.05.097a.29.29 0 0 0-.063.078c0 .008-.016.028-.031.04-.028.023-.028.023-.016 0 .008-.016-.004-.005-.027.019a.574.574 0 0 1-.246.16.218.218 0 0 0-.086.04c-.008.007-.024.01-.04.003-.015-.004-.027 0-.027.012 0 .011-.023.011-.062.004-.04-.004-.063-.004-.063.007 0 .012-.082.02-.238.02-.148 0-.23-.008-.227-.016.008-.011-.007-.015-.039-.007-.039.007-.054.003-.054-.012 0-.012-.016-.016-.036-.008-.02.004-.035 0-.035-.008 0-.011-.015-.02-.035-.02a.098.098 0 0 1-.055-.023c-.015-.015-.035-.02-.046-.015-.012.004-.02-.008-.02-.024 0-.02-.008-.027-.012-.023-.02.02-.109-.035-.14-.082-.016-.028-.035-.043-.043-.035-.008.003-.02-.008-.024-.028a.154.154 0 0 0-.054-.058c-.067-.047-.211-.309-.145-.27.012.008.016.008.008-.008-.008-.011-.02-.015-.027-.011-.012.007-.024-.016-.028-.051-.008-.035-.02-.063-.031-.063-.008 0-.012-.015-.004-.031.004-.016 0-.035-.008-.039-.02-.012-.058-.402-.047-.426.004-.008.012-.078.016-.16.008-.09.016-.152.031-.16a.025.025 0 0 0 .008-.035c-.008-.012-.004-.028.004-.04a.353.353 0 0 0 .039-.097c.012-.043.031-.078.04-.078.007 0 .01-.004.01-.012-.007-.023.044-.11.06-.11.011 0 .015-.007.007-.01-.015-.017.04-.08.07-.08.016 0 .024-.007.02-.019-.008-.027.055-.105.082-.105.012 0 .035-.02.05-.043.017-.023.04-.043.056-.043.015 0 .027-.012.027-.023 0-.016.004-.016.016.003.015.024.015.024.02-.003 0-.024.108-.086.14-.079a.08.08 0 0 0 .035-.02c.015-.01.043-.019.058-.01.016.003.028.003.028-.009 0-.043.707-.046.734-.004m-3.7.668c.005.012.028.016.052.012.027-.008.043 0 .043.012s.015.016.035.012c.02-.008.035-.004.035.003 0 .012.023.024.05.032.032.004.055.02.055.031 0 .008.004.012.012.008.024-.028.27.164.27.21 0 .012.008.024.015.024.012 0 .028.024.035.047.012.027.032.074.047.102.012.03.02.066.012.086-.004.015 0 .03.012.03s.015.056.015.145c0 .098-.003.137-.02.13-.01-.009-.015.003-.003.042.008.04.004.055-.012.055-.011 0-.015.012-.008.027.004.016 0 .028-.007.028-.012 0-.02.011-.02.023 0 .016-.008.04-.02.05-.015.013-.023.028-.023.032 0 .024-.055.09-.066.078-.008-.008-.008-.004-.004.012.012.027-.074.117-.098.11-.008 0-.015.003-.015.011 0 .012-.028.027-.059.04-.035.015-.063.03-.063.038s-.011.008-.027 0c-.015-.004-.027 0-.027.012 0 .008-.028.023-.059.031-.035.004-.066.016-.07.027-.008.008-.031.008-.05.004-.024-.007-.048 0-.056.008-.007.016-.039.016-.09.008-.05-.008-.078-.004-.078.012 0 .011-.101.02-.347.02-.262 0-.352-.009-.34-.024.008-.012-.012-.016-.078-.008l-.09.012-.008-1.563.524.004c.359.004.523.012.527.027m-.645 2.059a.476.476 0 0 0 .106 0c.023-.004 0-.008-.059-.008-.058 0-.078.004-.047.008" fill="#1cb4e4"/><path d="M4.203.047c-.023.027-.039.039-.039.031s-.012.008-.027.031c-.012.028-.04.051-.051.051-.016 0-.024.008-.02.016s-.007.023-.035.039c-.023.012-.043.031-.043.043 0 .012-.015.027-.035.035a.123.123 0 0 0-.055.055C3.887.37 3.871.39 3.86.39c-.011 0-.027.015-.035.039-.011.023-.027.039-.039.035-.012 0-.023.004-.023.015 0 .02-.145.176-.164.176a.622.622 0 0 0-.114.114.433.433 0 0 1-.12.117c-.012 0-.02.011-.02.027s-.008.023-.02.016C3.316.926 3.31.926 3.31.934c0 .027-.114.148-.137.148-.012 0-.02.004-.016.012 0 .008-.015.035-.039.058-.023.024-.035.036-.027.02.008-.016.008-.02-.008-.012-.012.008-.02.02-.02.031 0 .012-.023.043-.054.07-.031.028-.047.052-.035.06.027.015.027 7.933.004 7.933-.036 0-.02.031.03.059.032.019.06.046.063.07.008.02.016.031.024.023.004-.004.023.016.043.043.015.031.039.051.05.051.012-.004.024.004.024.012 0 .015.047.062.266.273.011.012.023.031.023.04 0 .01.008.01.016.007.011-.008.02 0 .02.012 0 .031.058.09.073.074.008-.008.012-.004.012.008 0 .015.09.02.324.02h.325V4.983c0-3.004-.008-4.968-.016-4.972-.008-.008-.031.008-.05.035m-2.552 2.57l-.636.649v4.039l.636.648c.352.356.645.645.657.645.011 0 .02-.95.02-3.313 0-2.242-.009-3.316-.02-3.316-.008 0-.305.293-.657.648m12.258.012c.016.016.02.629.02 2.648v2.63h1.433c1.043 0 1.438.007 1.438.019 0 .023.12.008.148-.02.024-.023.09-.02.106.004.008.016.015.012.023 0s.05-.027.09-.031c.043-.004.082-.016.086-.024.004-.011.016-.011.031.004.02.016.031.016.047-.011.027-.032.074-.04.05-.008-.007.015 0 .015.02.008.016-.004.035-.012.04-.012.003 0 .003-.008 0-.016-.008-.008.023-.02.066-.027.043-.008.078-.02.078-.027 0-.012.012-.016.02-.008.011.008.027 0 .035-.012.015-.02.015-.02.015.004.004.023.004.023.024-.004.023-.027.117-.078.14-.07.008 0 .012-.004.012-.016 0-.015.066-.043.094-.039.004.004.012-.008.012-.023 0-.02.011-.028.03-.02.024.008.036 0 .044-.023.008-.024.023-.035.047-.035.02 0 .035-.012.035-.02 0-.012.011-.016.023-.008s.016.004.008-.015c-.012-.032.094-.137.137-.137.015 0 .023-.008.02-.016-.009-.008-.005-.023.003-.027.012-.008.016-.02.008-.035-.004-.012.004-.028.02-.035.015-.004.027-.024.027-.04 0-.019.008-.023.027-.015.024.008.028 0 .02-.027-.004-.02 0-.036.008-.036.007 0 .015-.011.015-.023 0-.016.012-.04.027-.055.016-.015.024-.035.016-.043-.004-.008.004-.02.02-.027.011-.004.02-.02.015-.035-.008-.016-.004-.028.008-.028s.016-.007.012-.015c-.016-.024.008-.074.027-.063.008.004.016 0 .016-.008 0-.011-.012-.023-.024-.027-.015-.004-.011-.015.016-.039.023-.02.027-.031.012-.039-.032-.012-.028-.039.004-.07.015-.016.023-.04.015-.055a.376.376 0 0 1-.008-.047c0-.012.008-.062.012-.113.004-.05.016-.094.027-.094.008 0 .016-.016.016-.035 0-.02-.008-.035-.02-.035-.007 0-.015-.031-.015-.07 0-.036-.008-.075-.02-.079-.011-.007-.011-.023 0-.046.024-.043.024-.043-.011-.079-.024-.027-.024-.03-.004-.046.02-.012.02-.02-.004-.04a.114.114 0 0 1-.035-.082c-.004-.027-.012-.054-.02-.054s-.012-.012-.008-.024c.008-.015 0-.035-.015-.047-.012-.011-.02-.027-.016-.039.008-.007.004-.015-.008-.015-.008 0-.02-.012-.02-.024 0-.015-.007-.027-.015-.027s-.02-.012-.02-.027c0-.012-.011-.028-.023-.032a.054.054 0 0 1-.027-.047c0-.02-.008-.039-.02-.039a.596.596 0 0 1-.172-.183c0-.012-.023-.028-.054-.035-.04-.008-.047-.016-.04-.04.009-.023.005-.027-.027-.015-.023.008-.039.004-.039-.008s-.011-.02-.027-.02c-.012 0-.02-.007-.016-.015.016-.027-.05-.055-.078-.031-.02.015-.02.015-.012-.008.008-.027 0-.031-.043-.027-.027.003-.05 0-.05-.012 0-.031.101-.121.12-.11.009.004.024-.015.028-.042.008-.032.024-.055.04-.055.01 0 .023-.016.023-.035 0-.024.007-.032.02-.024.015.008.019.004.01-.015-.007-.02 0-.032.017-.04.027-.011.027-.015.003-.027-.02-.015-.02-.02.012-.02.027 0 .027-.003.008-.015-.016-.012-.02-.02-.008-.02.024 0 .047-.062.043-.101 0-.012.012-.023.024-.023.015 0 .027-.008.027-.016 0-.012-.008-.02-.016-.02-.011 0-.02-.011-.02-.027s.009-.023.016-.016c.028.016.043-.027.02-.054-.016-.02-.016-.032-.004-.04.031-.023.04-.074.02-.12-.016-.032-.016-.047 0-.063.027-.027.027-.25 0-.277-.016-.016-.016-.032 0-.067.02-.043.011-.097-.024-.117-.012-.012-.012-.02.004-.035.016-.016.016-.027-.004-.05-.016-.016-.027-.055-.031-.087 0-.031-.008-.054-.016-.054s-.015-.016-.015-.036c0-.02-.008-.039-.016-.039s-.012-.015-.008-.035c.004-.02 0-.031-.012-.023-.007.004-.02-.016-.027-.043-.004-.031-.023-.055-.043-.063-.02-.004-.031-.023-.031-.047 0-.02-.012-.035-.027-.035-.028 0-.082-.07-.07-.09.007-.011 0-.011-.016-.007-.016.007-.036-.008-.055-.043-.02-.028-.043-.047-.055-.043-.012.004-.023-.004-.031-.02a.038.038 0 0 0-.035-.027c-.016 0-.024-.012-.016-.028.008-.023.004-.027-.027-.015-.027.008-.04.004-.031-.008.007-.008-.016-.023-.047-.027-.035-.008-.067-.024-.075-.043-.007-.024-.011-.024-.027-.004-.008.02-.015.02-.015.004 0-.012-.012-.016-.028-.008-.012.004-.023 0-.023-.012s-.016-.02-.032-.02a.17.17 0 0 1-.062-.003.296.296 0 0 0-.063-.024.111.111 0 0 0-.062-.008c-.016 0-.027-.003-.02-.015.004-.008-.003-.02-.02-.027-.015-.008-.034-.004-.042.007-.008.016-.023.016-.05-.007-.028-.02-.052-.02-.071-.008-.02.007-.035.007-.043-.004a.074.074 0 0 0-.047-.016c-.016 0-.031-.008-.031-.02 0-.007-.012-.015-.028-.015-.015 0-.023.008-.015.016.004.011-.016.02-.047.02-.047 0-.055-.005-.035-.02.02-.012.008-.016-.051-.02-.043 0-.11-.004-.145-.008-.035 0-.066.004-.066.012 0 .012-.512.016-1.234.016-.809 0-1.23-.004-1.23-.016s-.016-.02-.032-.02c-.023 0-.023.004-.008.024m6.094 0c0 .008.008.012.02.012.015 0 .015.007 0 .015-.02.012-.024.04-.016.09.008.04.004.074-.004.074-.024 0-.035.07-.02.114.012.03.008.05-.02.078-.034.039-.046.082-.015.066.012-.008.02.008.02.031 0 .028-.008.047-.016.047-.023 0-.039.07-.02.082.02.012.02.078 0 .078-.023 0-.035.075-.015.11.012.023.012.043-.004.058a.279.279 0 0 0-.023.125c-.004.059-.012.106-.024.11-.012.004-.023.02-.023.035 0 .012.008.02.02.016.007-.008.015.007.015.03 0 .024-.004.048-.016.052-.02.007-.039.101-.02.101.024 0 .024.059 0 .082-.019.024-.027.117-.007.145.004.011 0 .039-.012.062-.039.082-.05.102-.05.125.003.016.007.012.019-.004.012-.02.016-.011.016.035 0 .051-.004.055-.016.024-.012-.027-.016-.027-.016.02-.004.03-.007.074-.011.097-.008.035-.008.04.007.02.016-.024.02-.016.02.027 0 .035-.008.059-.016.059-.023 0-.039.113-.02.132.02.02.024.098 0 .098-.023 0-.03.11-.015.16.012.027.012.047 0 .059-.012.011-.02.039-.02.058a.063.063 0 0 1-.023.051c-.015.008-.015.012 0 .02.028.011.031.117.008.14-.023.024-.035.153-.02.153.024 0 .024.101.004.109-.023.008-.039.152-.02.164.02.016.02.086-.003.11a.935.935 0 0 0-.023.218c-.004.11-.012.203-.024.211-.02.012-.02.074 0 .074s.02.153 0 .16c-.023.008-.039.192-.02.204.02.011.02.171 0 .195-.015.016-.019.086-.015.336 0 .058-.008.16-.016.23a1.215 1.215 0 0 0-.008.27l.008.148.457-.008.457-.003-.007-.043c-.016-.13-.02-.325-.004-.344.02-.027.03-.317.011-.414A.295.295 0 0 1 20.492 7c.012-.035.02-.176.024-.316.004-.149.015-.258.027-.262.012-.008.012-.024 0-.04-.02-.034-.02-.175 0-.175s.039-.168.02-.187c-.024-.024-.024-.13 0-.137.011-.004.023-.078.027-.192.004-.113.012-.187.023-.191.012-.004.02-.023.02-.043 0-.02-.008-.027-.02-.023-.008.007-.015-.012-.015-.043 0-.032.007-.051.015-.047.008.004.012 0 .012-.012.004-.012.008-.047.016-.078.007-.04.004-.059-.008-.059-.02 0-.024-.093-.004-.117.027-.027.039-.11.02-.121-.02-.016-.024-.098 0-.098.023 0 .038-.101.019-.148-.008-.024-.008-.055.004-.074a.38.38 0 0 0 .015-.117c0-.047.004-.086.012-.086.024 0 .04-.079.02-.098-.02-.02-.024-.098 0-.098.015 0 .043.051.039.074 0 .008.004.016.015.016.012 0 .016.012.008.035-.008.028-.008.035.008.028.012-.008.02 0 .02.011 0 .016.011.032.027.04.016.003.02.015.016.027-.008.008-.004.015.007.015.012 0 .016.008.012.02-.008.008-.004.02.008.027.008.004.016.024.016.043 0 .024.007.031.027.024.027-.008.035.015.027.09-.004.019.004.027.016.019.008-.004.02 0 .02.016 0 .015.011.027.023.027.015 0 .023.012.02.02-.008.011 0 .03.015.046a.1.1 0 0 1 .027.063c0 .02.012.031.032.031.023 0 .023.004.007.016-.02.011-.02.02-.007.027.011.008.02.008.023 0 0-.008.008.004.02.027a.192.192 0 0 1 .015.067c-.004.016.008.023.024.023.015 0 .02.012.015.032-.008.015-.004.023.004.02.008-.009.024.007.035.03.012.024.016.04.004.032-.008-.004-.008.003-.004.02.008.015.024.023.035.019.02-.008.024 0 .016.027s-.008.035.008.027c.012-.007.02 0 .02.024 0 .02.007.035.015.035s.012.012.008.027c-.008.02-.004.024.02.016.023-.012.027-.004.015.027-.008.028-.004.04.008.028.012-.004.02.003.02.027 0 .02.011.035.03.035.02.004.02.008.008.012-.011.004-.02.015-.02.023 0 .012.009.012.024.008.016-.008.028.008.035.047.008.031.024.059.04.062.011.008.02.02.011.028-.004.008 0 .015.008.015.012 0 .023.028.031.063.008.043.02.062.035.055.016-.004.028.02.043.078.016.062.028.082.047.074.02-.004.024 0 .02.016a.045.045 0 0 0 .015.046.123.123 0 0 1 .024.067c0 .031.008.039.023.035.02-.008.032.012.047.07.012.043.031.082.043.082.012 0 .031.035.043.078.016.043.035.082.043.082.012 0 .031.028.047.06.016.034.02.058.012.054-.008-.008-.008.004-.004.015.008.016.02.032.035.032.012 0 .027.023.039.05.012.032.027.055.043.055.016 0 .016.004-.004.016-.012.008-.016.023-.012.035.012.02.02.02.028 0 .011-.016.02 0 .027.043.008.039.023.066.04.066.023 0 .023.004.003.028-.023.027-.023.03.004.02.02-.009.031-.005.031.01 0 .016.012.032.024.036.015.008.015.008 0 .008-.012.004-.016.015-.012.031.004.012.016.02.023.016.008-.004.02 0 .028.008.004.011 0 .02-.008.02-.012 0-.02.007-.02.019 0 .011.012.015.028.007.015-.003.023 0 .023.016s.008.027.02.027c.007 0 .011.012.007.028-.007.015 0 .027.016.027.02 0 .027.016.027.043v.043h.301c.258 0 .297 0 .29-.023-.005-.016-.005-.028.003-.028s.024-.02.028-.047c.007-.023.023-.043.035-.043.015 0 .023-.011.02-.035-.005-.02 0-.035.007-.035.008 0 .02-.02.023-.043.008-.027.024-.047.036-.047.011 0 .03-.035.047-.078.011-.047.03-.082.046-.082.012 0 .024-.008.024-.016.004-.011.004-.023.008-.03.027-.095.035-.114.05-.106.016.004.032-.024.043-.078.016-.051.036-.086.047-.086.012 0 .028-.024.035-.055.008-.027.02-.055.028-.055.011 0 .011-.008.008-.015-.008-.012 0-.02.015-.02.012 0 .028-.023.035-.058.008-.036.02-.063.032-.063.007 0 .011-.008.003-.02-.003-.007.004-.015.02-.015.012 0 .027-.008.027-.02 0-.007.004-.027.008-.035 0-.012.004-.031.004-.043.004-.015.012-.027.016-.027.035.008.047-.004.023-.02-.023-.011-.023-.015.004-.015.016 0 .031-.008.031-.016.008-.055.02-.101.035-.105a.019.019 0 0 0 .008-.024c-.008-.008 0-.015.016-.015.02 0 .027-.016.027-.04 0-.035.004-.035.02-.015.015.023.02.02.012-.012-.004-.023 0-.039.007-.039.012 0 .012-.016.008-.031-.008-.02-.004-.024.016-.016.02.004.027-.004.027-.027 0-.02.012-.04.027-.047.024-.008.024-.012.004-.023-.02-.012-.02-.016 0-.016.012 0 .02-.012.02-.027 0-.016.008-.028.02-.028.007 0 .015-.011.015-.027 0-.012.008-.024.016-.024.011 0 .015-.015.007-.027-.003-.016 0-.027.012-.027.008 0 .016-.012.012-.024 0-.011.008-.02.02-.015.015.004.023-.004.015-.024-.008-.015 0-.031.016-.039.015-.004.023-.02.02-.031-.005-.012.007-.031.023-.047.02-.012.035-.039.035-.055 0-.02.008-.03.02-.03.007 0 .011-.009.007-.02-.015-.02.031-.07.059-.07.011 0 .015-.008.011-.016-.007-.012-.003-.02.012-.02.016 0 .016-.004-.004-.015-.015-.012-.02-.02-.004-.02.012 0 .016-.012.012-.023-.004-.012.012-.036.035-.055.024-.016.04-.043.032-.055-.004-.015 0-.027.007-.027.012 0 .024-.02.032-.043.003-.024.02-.047.035-.047.015 0 .02-.008.015-.023-.007-.016 0-.028.012-.028s.016-.011.008-.027c-.004-.016 0-.027.008-.027.011 0 .02-.012.02-.024 0-.02.007-.023.027-.016.02.008.023.004.015-.027-.008-.02-.004-.043.008-.047.008-.008.012-.02.008-.027-.004-.012 0-.02.008-.02.011 0 .02-.011.02-.023 0-.02.01-.024.026-.016.024.008.028.004.02-.02-.004-.015-.004-.03.008-.038.008-.008.012-.024.008-.035-.004-.016 0-.024.007-.024.008 0 .016-.016.016-.031 0-.027.004-.027.02-.008.015.024.02.02.011-.012-.004-.023-.004-.035.008-.027.012.004.016.04.012.074-.008.035 0 .09.015.121.02.04.02.067.008.082-.02.024-.008.114.016.13.023.011.02.093 0 .093-.027 0-.023.04.008.098.031.054.035.14.008.125-.008-.004-.016.004-.016.023 0 .02.008.04.02.043.011.004.023.059.023.156a.633.633 0 0 0 .023.164c.024.024.028.102.004.102-.023 0-.004.148.02.156.02.008.02.145-.004.145s-.004.129.02.14c.023.008.019.141-.005.184-.015.027-.011.039.004.05.016.009.024.075.028.231.004.133.011.223.023.238.016.02.02.051.008.102-.016.098-.012.281.012.305.023.027.02.238-.008.242-.012 0-.012.004.008.016.02.011.02.015 0 .015-.016.004-.02.02-.012.07.008.036.012.114.012.176.004.063.011.102.02.09.007-.012.011.055.011.149l.004.171h.89v-.078c0-.043.008-.078.016-.078.024 0 .004-.293-.02-.3-.007-.005-.011-.063-.011-.13 0-.066.004-.12.012-.113.011.004.015-.012.015-.035 0-.023-.004-.043-.012-.043a1.04 1.04 0 0 1-.035-.285c.008-.106 0-.274-.02-.285-.01-.008-.015-.04-.007-.09.016-.11.012-.234-.008-.242-.023-.008-.023-.164 0-.164.024 0 .024-.047 0-.055-.012-.004-.023-.078-.027-.191a.7.7 0 0 0-.027-.207c-.012-.016-.012-.04 0-.079.019-.054.007-.171-.016-.187-.024-.012-.02-.102 0-.121.02-.024.004-.117-.02-.117-.007 0-.015-.024-.015-.051 0-.031.008-.055.02-.055.023 0 .019-.047-.005-.055-.011-.003-.02-.062-.023-.144a.479.479 0 0 0-.027-.164c-.016-.02-.016-.04-.004-.067.02-.046.011-.136-.016-.136-.02 0-.02-.086 0-.098.008-.004.012-.031.008-.062-.004-.028-.016-.047-.024-.043-.007.004-.015-.016-.015-.043 0-.032.008-.055.015-.055.028 0 .024-.05-.003-.059-.012-.004-.02-.054-.024-.12a.34.34 0 0 0-.027-.134c-.012-.015-.012-.035 0-.054.02-.031.008-.114-.02-.114-.008 0-.012-.035-.004-.09.008-.058.008-.085-.008-.085-.007 0-.02-.024-.02-.047 0-.024.009-.04.02-.035.024.015.024.007-.011-.059-.016-.035-.024-.074-.016-.101a.121.121 0 0 0-.015-.09c-.02-.032-.024-.051-.012-.075.02-.035.008-.109-.02-.109-.008 0-.015-.016-.015-.035 0-.02.007-.035.015-.035s.012-.02.008-.043c-.004-.028-.016-.047-.023-.047-.008 0-.016-.016-.016-.04 0-.03.004-.034.016-.01.015.019.02.015.02-.016 0-.02-.009-.04-.013-.04-.027 0-.054-.085-.035-.093.012-.008-.168-.012-.394-.016-.23 0-.426-.004-.438-.004-.011 0-.023.02-.027.043 0 .024-.012.047-.024.05-.007.005-.011.013-.003.02.003.012 0 .02-.012.02s-.016.012-.012.027c.008.02.004.024-.015.02-.016-.008-.024 0-.024.023 0 .02-.012.035-.02.035-.011 0-.015.012-.011.028.008.012.004.023-.008.023-.008 0-.016.016-.016.028 0 .02-.007.023-.02.015-.015-.008-.015-.004-.007.02.004.02 0 .027-.02.027-.019 0-.023.012-.015.035.004.02 0 .035-.008.035s-.02.02-.027.047c-.004.024-.024.043-.035.043-.012 0-.024.008-.024.02 0 .008.008.011.016.008.011-.008.02-.004.02.007 0 .008-.012.02-.028.02-.012 0-.027.023-.035.055-.008.043-.016.05-.028.03-.015-.019-.015-.01-.007.024.007.04.004.047-.016.04-.016-.008-.027-.005-.027.007 0 .008.007.02.023.024.012.007.008.011-.012.011a.034.034 0 0 0-.03.032c0 .011-.005.023-.017.015-.007-.004-.019.004-.023.016-.008.015 0 .027.012.027.015 0 .012.008-.004.016-.012.008-.02.027-.012.035.008.012 0 .02-.015.02-.016 0-.024.007-.02.019.008.008 0 .016-.016.016-.023 0-.027.011-.023.039.008.015.004.035-.004.035-.012 0-.016.008-.016.023 0 .012-.02.043-.043.067a.375.375 0 0 0-.062.125c-.016.058-.027.078-.047.074-.016-.008-.027-.004-.023.012.007.05-.024.109-.04.086-.011-.02-.015-.012-.007.015.004.02 0 .043-.008.051-.008.004-.012.016-.004.027.008.012 0 .016-.02.008-.023-.008-.027-.004-.019.016.004.015-.008.035-.027.047-.032.015-.032.023-.012.035.016.012.016.015 0 .015-.012 0-.02.012-.02.028 0 .011-.011.027-.02.027-.01 0-.015.008-.007.016.004.011 0 .02-.016.02a.038.038 0 0 0-.035.027c-.008.015-.004.023.008.015.008-.008.016-.004.016.008s-.008.02-.016.02c-.012 0-.027.03-.039.07-.012.043-.031.07-.043.062-.012-.003-.023.016-.031.055-.008.035-.02.055-.031.05-.012-.007-.016 0-.008.024.011.032.008.035-.016.028-.016-.004-.027-.004-.027.007 0 .012.011.024.023.028s.008.008-.008.012c-.02 0-.03.015-.03.039 0 .035-.005.035-.02.015-.016-.023-.016-.02-.012.012.008.023 0 .039-.008.039-.012 0-.012.016-.008.031.008.02.004.024-.015.016-.02-.008-.028-.004-.02.012.004.011-.012.035-.031.054-.02.016-.027.028-.016.02.012-.004.024 0 .024.008 0 .011-.008.02-.02.02s-.015.01-.008.027c.004.015 0 .027-.02.027-.01 0-.019.008-.015.015.008.012 0 .02-.015.02-.032 0-.036.027-.004.04.011.007.011.01-.008.01-.02 0-.035.032-.051.083-.012.047-.027.074-.035.062-.008-.015-.016-.015-.024.004-.003.016 0 .031.012.035.012.008.008.012-.008.012-.02 0-.03.016-.03.043 0 .031-.005.035-.02.012-.016-.024-.02-.02-.012.011.004.024 0 .043-.008.043-.012 0-.012.012-.008.028.008.02.004.023-.015.02-.016-.008-.028 0-.028.015 0 .012-.008.023-.015.023-.008 0-.012.016-.008.036.004.02-.004.035-.012.035-.012 0-.016.011-.012.023.008.027-.027.067-.058.067-.016 0-.012.007.004.03.02.024.02.028-.008.016-.016-.003-.027-.003-.024.004.008.024-.046.16-.07.168-.012.008-.02 0-.012-.015.008-.016 0-.024-.011-.024-.016.004-.024-.004-.024-.015.004-.012 0-.024-.011-.024a.017.017 0 0 1-.016-.015c0-.012.008-.016.016-.008.011.004.011-.004.007-.02-.007-.015-.02-.023-.027-.015-.008.003-.016-.008-.016-.028 0-.027-.007-.031-.027-.023-.023.008-.027.004-.02-.02.008-.015.004-.027-.011-.031-.012 0-.012-.004.004-.012.02-.015.02-.02-.004-.027-.016-.008-.028-.023-.028-.04 0-.015-.007-.026-.02-.026-.007 0-.01-.012-.003-.024.004-.02-.004-.027-.023-.027-.028 0-.028-.004-.008-.02.023-.015.023-.015-.004-.015-.02 0-.031-.024-.04-.063-.007-.035-.023-.062-.034-.062-.016 0-.032-.02-.036-.043-.007-.028-.02-.047-.027-.047-.008 0-.012-.012-.004-.028.004-.011 0-.023-.012-.023-.011 0-.015-.016-.011-.027.008-.02 0-.028-.024-.028-.023 0-.03-.008-.023-.027.004-.016 0-.027-.012-.027s-.015-.008-.008-.016c.004-.012 0-.02-.007-.02-.012 0-.016-.011-.012-.035.008-.023.004-.035-.016-.035-.015 0-.023-.008-.015-.027.007-.02.003-.024-.02-.016-.027.012-.031.008-.02-.015.004-.02 0-.032-.011-.032-.016 0-.016-.004 0-.015.02-.012.02-.016-.004-.024a.054.054 0 0 1-.027-.047c0-.027-.008-.03-.028-.023-.023.008-.027.004-.02-.02.009-.015.005-.027-.007-.027-.008 0-.012-.012-.004-.02.004-.007 0-.019-.008-.019-.012 0-.02-.02-.02-.043 0-.035-.007-.039-.03-.031-.028.011-.028.008-.008-.02.023-.023.02-.027 0-.027-.024 0-.067-.078-.075-.129 0-.008-.007-.02-.02-.027-.027-.02-.081-.11-.066-.114.008 0 0-.007-.015-.015-.02-.012-.028-.028-.02-.035.004-.012-.008-.036-.027-.055-.02-.024-.031-.047-.027-.055.007-.008.003-.015-.008-.015-.012 0-.02-.016-.02-.036 0-.02-.008-.035-.015-.035-.012 0-.012-.011-.008-.027.008-.02.004-.024-.02-.016-.023.012-.031.008-.02-.015.005-.016.005-.032-.003-.032-.02 0-.043-.066-.04-.101 0-.012-.007-.016-.023-.012-.015.008-.03-.012-.047-.07-.015-.05-.035-.082-.05-.082-.02 0-.02-.004-.004-.012.011-.004.02-.016.02-.023 0-.008-.009-.012-.024-.008-.016.008-.031-.016-.047-.078-.016-.063-.031-.09-.047-.082-.012.004-.02-.004-.02-.02 0-.047-.003-.05-.03-.066-.012-.008-.02-.02-.016-.028.008-.007-.004-.02-.016-.027-.016-.004-.023-.02-.016-.027.004-.012-.007-.035-.027-.055-.023-.016-.035-.039-.027-.05.004-.012.004-.02-.008-.02s-.02-.016-.02-.035c0-.02-.007-.036-.015-.036-.012 0-.016-.007-.008-.02.004-.007-.004-.015-.02-.015-.02 0-.027-.004-.02-.011.005-.004 0-.028-.015-.047a.146.146 0 0 1-.027-.07c0-.016-.012-.032-.023-.032-.016 0-.032-.023-.04-.047-.015-.058-.02-.07-.02-.094-.003-.011-.019-.02-.034-.02-.02 0-.02-.003-.008-.01.012-.005.023-.016.023-.028 0-.008-.011-.012-.023-.008-.027.008-.078-.102-.066-.144 0-.012-.004-.02-.016-.012s-.02.004-.02-.004-.191-.016-.43-.016c-.234 0-.425.008-.425.016m-9.504.008c0 .027-.09.058-.121.039-.024-.008-.043-.008-.07.011-.032.024-.043.024-.067.004-.023-.02-.031-.015-.05.012-.012.016-.032.027-.044.02-.007-.008-.027-.004-.043.007-.011.012-.03.016-.043.008a.057.057 0 0 0-.042.008.073.073 0 0 1-.04.02c-.035-.008-.058 0-.05.02.008.01-.004.015-.032.007-.027-.004-.043 0-.035.008.008.015-.031.027-.07.02a.054.054 0 0 0-.035.015c-.012.012-.028.012-.035.008-.004-.008-.012 0-.012.015 0 .016-.027.036-.07.047-.036.016-.067.031-.067.04 0 .007-.02.007-.039.003-.023-.008-.035-.004-.027.008.008.012 0 .016-.024.008-.027-.008-.03 0-.023.02.008.023 0 .03-.024.03-.019 0-.039.012-.042.032-.008.023-.028.039-.063.043-.027 0-.047.012-.043.027.004.028-.129.164-.16.164-.016 0-.027.024-.035.051-.008.04-.016.05-.04.043-.019-.008-.027-.004-.023.023.008.043-.035.133-.058.118-.008-.004-.012.007-.004.027.004.023.004.039-.004.039-.02 0-.04.05-.05.129a.159.159 0 0 1-.036.082c-.02.016-.024.027-.008.031.024.012.024.07 0 .082-.016.004-.02.059-.02.156 0 .227 0 .25.02.239.012-.008.02.004.02.023 0 .02-.008.04-.02.04-.023 0 0 .085.031.124.012.016.024.04.024.055 0 .02.008.031.02.031.015 0 .015.008-.005.02-.023.015-.023.02 0 .039.016.012.028.039.024.058-.004.028-.004.028.012.008.011-.02.02-.008.027.04.008.038.023.066.035.066.016 0 .027.015.027.035 0 .02.016.035.036.043.027.004.035.02.027.035-.004.016-.004.027.008.027.008 0 .027.024.043.055a.117.117 0 0 0 .074.063c.027.003.066.035.09.062.02.031.043.05.054.043.008-.004.02.004.024.02.008.015.023.023.035.019.016-.008.027-.004.027.008 0 .008.012.015.028.015.015 0 .02.012.011.032-.007.027-.007.027.02.008.027-.024.031-.024.031.003 0 .016.012.028.031.028.02 0 .04.008.047.02.004.007.02.011.036.003.019-.008.023 0 .015.02-.008.015-.004.027.008.027.008 0 .02-.008.023-.02.008-.019.012-.019.012-.003 0 .015.012.02.027.015.012-.008.028 0 .032.016.008.016.023.023.039.02.015-.008.027-.004.027.003 0 .012.024.02.055.02s.058.012.066.023c.008.012.028.016.047.008.027-.008.04 0 .047.02.012.023.016.023.039.004.016-.012.023-.016.023 0 0 .011.02.02.043.02.02 0 .059.015.082.03.02.016.036.02.028.008-.02-.031.023-.027.054.008.02.02.032.02.051.004.024-.02.031-.016.043.008.012.02.031.027.059.02.023-.005.05 0 .066.019.031.031.055.035.04.008-.005-.008 0-.016.015-.016.016 0 .027.008.027.016 0 .007.012.02.028.027.015.004.023 0 .015-.008-.015-.027.047-.02.074.008.032.031.059.035.059.008 0-.016.008-.012.027.004a.32.32 0 0 0 .118.027c.058.004.097.016.113.035.02.027.023.027.039.008.012-.02.02-.02.043.004.035.035.058.039.07.008.004-.016.016-.016.031.007.012.016.04.028.059.028.086-.004.129.008.125.023a.03.03 0 0 0 .02.028c.011.007.02 0 .02-.012 0-.016.01-.008.026.012.02.027.028.027.043.011.012-.02.016-.02.024.004.008.016.023.024.035.016.016-.004.035.004.05.015.012.016.032.024.048.02.011-.004.02 0 .02.012 0 .008.01.015.027.015.015 0 .039.016.058.035a.824.824 0 0 0 .094.07c.05.032.062.052.058.083-.003.031 0 .039.016.031.016-.004.027.004.027.02 0 .015.008.03.016.03s.012.016.008.036c-.008.02-.004.035.008.035.011 0 .02.02.02.043 0 .027-.005.043-.012.04-.008-.005-.016.003-.02.023 0 .02.008.039.016.043.023.015.02.097-.004.097-.012 0-.016.016-.008.035.004.02 0 .036-.008.036s-.02.023-.023.046c-.008.024-.02.043-.028.043s-.011.016-.008.032c.012.02.008.027-.015.015-.02-.008-.031 0-.031.016s-.024.043-.051.059a.166.166 0 0 0-.063.066c-.008.039-.078.074-.078.039 0-.012-.015 0-.035.02-.016.023-.039.043-.047.043-.047.003-.074.019-.074.035 0 .011-.008.011-.02-.004-.015-.024-.02-.024-.035.004a.04.04 0 0 1-.043.02c-.015-.005-.031.003-.035.019-.012.023-.015.023-.039.008-.02-.02-.031-.02-.047.007-.023.032-.074.043-.055.012.004-.008-.003-.012-.023-.004-.02.004-.043.016-.047.024-.012.023-.078.02-.078 0 0-.012-.012-.02-.023-.02-.016 0-.028.008-.028.016 0 .054-.492.05-.531-.004-.008-.016-.016-.016-.031 0-.031.031-.078.031-.13-.004-.026-.02-.042-.024-.042-.012s-.012.024-.027.024c-.016 0-.028-.008-.028-.02 0-.023-.054-.039-.078-.02-.016.016-.027.012-.043-.007a.048.048 0 0 0-.055-.016.047.047 0 0 1-.05-.023c-.016-.028-.02-.028-.036-.004-.011.02-.019.02-.05-.008-.028-.027-.035-.027-.04-.008 0 .02-.003.016-.015-.004-.008-.015-.039-.031-.074-.031-.031 0-.059-.012-.063-.02-.011-.035-.093-.058-.11-.03-.01.015-.015.015-.015 0 0-.013-.011-.024-.027-.024a.038.038 0 0 1-.035-.028c-.008-.011-.02-.027-.028-.027-.011 0-.011.008-.007.02.02.027-.02.02-.051-.008-.012-.016-.031-.028-.043-.028-.012 0-.02-.007-.02-.02 0-.007-.011-.01-.027-.003-.016.004-.023 0-.023-.02 0-.015-.008-.027-.016-.023-.02.016-.16-.055-.16-.074 0-.012-.012-.02-.028-.02-.02 0-.027.012-.02.028.009.015.005.023-.007.015-.008-.004-.015 0-.015.016 0 .035-.098.137-.126.129-.011 0-.015 0-.007.004.015.011-.078.11-.106.11-.011 0-.043.022-.07.054-.027.027-.059.05-.07.05-.012 0-.04.032-.059.067-.02.039-.035.059-.035.043 0-.024-.024-.012-.027.012a.142.142 0 0 1-.02.05c-.02.04-.02.043.039.07.031.016.055.036.05.048-.003.007.005.007.02 0 .024-.008.028-.004.02.02-.008.023 0 .03.023.03.051 0 .086.02.086.047 0 .016.012.024.031.02.032-.008.075.023.075.054 0 .028.031.024.043-.003.004-.012.008-.008.008.011 0 .016.011.028.019.02.012-.004.02 0 .02.012 0 .011.011.015.023.007.016-.004.027 0 .027.008 0 .012.008.016.02.008.008-.004.015.004.015.02 0 .011.008.027.016.027.012 0 .02-.012.02-.024 0-.015.007-.011.015.004.012.016.02.02.02.008 0-.008.012-.004.023.012.02.027.024.031.059.035.008.004.023.004.031.008.012 0 .031.004.047.008.02 0 .031.011.031.027s.008.027.02.027c.008 0 .015-.011.015-.02 0-.01.012-.007.028.013.023.03.027.03.043.007.011-.02.015-.02.015-.004.004.012.02.02.04.02.015 0 .03.012.03.02 0 .011.016.015.036.007.027-.008.035-.004.035.016 0 .035.027.039.047.012.008-.012.02-.012.035.004a.222.222 0 0 0 .09.027c.031.004.074.02.09.035.015.02.03.02.035.008.008-.024.055-.027.055-.004 0 .027.058.039.07.016.012-.016.02-.016.039 0a.74.74 0 0 0 .172.03c.082.009.156.02.164.028.035.027.168.04.168.016 0-.016.058-.02.23-.012.336.012.352.012.364-.008.007-.008.039-.015.07-.015.101 0 .21-.016.234-.036.02-.015.028-.015.035 0 .012.012.028.012.055-.007.024-.016.055-.024.063-.02.011.008.027.004.035-.012.011-.015.02-.015.039 0 .023.02.027.02.027-.003 0-.016.016-.028.035-.028.02 0 .035-.008.035-.02 0-.007.016-.011.032-.003.015.004.035 0 .043-.016.011-.016.015-.02.015-.004s.008.024.016.024c.012 0 .02-.012.02-.024 0-.015.023-.031.05-.039.031-.004.055-.02.055-.027 0-.012.008-.012.016-.008.011.008.02.004.02-.008 0-.008.019-.02.05-.027.027-.004.055-.024.058-.04.008-.011.02-.019.028-.015.011.008.02.004.02-.004 0-.011.019-.023.042-.031.024-.008.043-.023.043-.04 0-.015.012-.023.028-.015.015.008.023.004.015-.008-.004-.007.008-.015.028-.015s.035-.008.035-.02c0-.008.035-.05.078-.093.039-.04.07-.086.066-.098-.004-.012.008-.027.031-.031.02-.008.036-.024.036-.047 0-.02.007-.031.023-.024.016.004.031-.02.047-.078.012-.062.031-.09.05-.09.024 0 .024 0 0-.015-.011-.012-.015-.02-.003-.02.008 0 .027-.047.039-.105.012-.059.031-.106.039-.106.012 0 .012-.02.008-.047-.008-.03-.004-.054.008-.062.011-.004.02-.031.02-.059a.376.376 0 0 1 0-.093c.003-.063 0-.22-.005-.286a.161.161 0 0 1 .008-.078c.008-.015 0-.039-.016-.054-.02-.02-.023-.043-.015-.079.008-.035.008-.043-.012-.03-.016.01-.02.003-.012-.024.004-.024.004-.043-.004-.047-.011-.008-.011-.02-.007-.035.004-.012-.008-.04-.028-.059-.02-.023-.031-.047-.027-.058.008-.008.004-.016-.004-.016-.02 0-.043-.066-.039-.102 0-.015-.012-.02-.027-.011-.024.007-.028.004-.02-.02.008-.02.004-.027-.008-.02-.008.008-.015 0-.015-.011 0-.016-.016-.035-.036-.047-.019-.012-.03-.031-.023-.043.008-.012.004-.016-.004-.008-.015.016-.113-.074-.113-.105 0-.016-.016-.024-.035-.024a.046.046 0 0 1-.047-.039c-.008-.023-.02-.031-.043-.023-.024.008-.031 0-.031-.016 0-.015-.016-.031-.036-.031-.02 0-.043-.008-.054-.024-.016-.011-.035-.019-.047-.015-.012.004-.02 0-.02-.008 0-.012-.023-.023-.05-.031-.032-.008-.04-.016-.024-.024.016-.011.012-.02-.012-.027-.023-.004-.035 0-.027.008.004.008 0 .015-.012.015-.007 0-.015-.011-.015-.027 0-.031-.035-.035-.035-.004-.004.016-.008.016-.024-.004-.012-.015-.039-.027-.062-.03-.028-.005-.051-.013-.055-.024-.008-.008-.023-.012-.043-.004-.016.004-.031 0-.04-.02-.007-.02-.015-.023-.03-.012-.016.016-.028.012-.035-.007-.004-.02-.02-.024-.043-.02-.02.008-.043 0-.059-.016-.02-.019-.031-.019-.035-.003-.008.015-.016.011-.035-.008-.028-.035-.075-.047-.055-.016.004.012 0 .02-.008.02-.012 0-.023-.008-.031-.02-.004-.012-.027-.015-.05-.012-.024.004-.052-.003-.063-.015-.012-.016-.036-.02-.063-.016-.027.008-.043.004-.05-.012a.038.038 0 0 0-.036-.027c-.012 0-.02.008-.015.016.015.023-.016.015-.047-.016-.032-.027-.035-.027-.051-.004-.012.02-.02.02-.035.004a.099.099 0 0 0-.059-.023.15.15 0 0 1-.07-.024c-.047-.031-.149-.047-.156-.023-.004.015-.016.012-.028-.004-.008-.016-.031-.02-.054-.016-.028.008-.047 0-.063-.02-.016-.023-.023-.023-.047-.003-.02.012-.031.015-.039.004-.004-.012-.035-.02-.062-.02-.028 0-.047-.008-.043-.015.004-.008-.004-.02-.016-.028-.016-.004-.027-.004-.027.008 0 .008-.012.016-.028.016-.015 0-.023-.008-.015-.02s0-.015-.032-.012c-.03.008-.05 0-.054-.015-.008-.016-.02-.02-.031-.012-.008.004-.028-.004-.04-.02-.015-.023-.035-.027-.058-.023-.024.008-.035.004-.031-.004.011-.015-.04-.039-.063-.023-.008.004-.015 0-.015-.012s-.008-.016-.016-.008c-.012.004-.02 0-.02-.015 0-.032-.047-.051-.058-.024-.004.012-.008.008-.012-.012 0-.015-.02-.035-.043-.039a.085.085 0 0 1-.055-.054c-.007-.024-.023-.043-.035-.043-.02 0-.023-.012-.015-.028.004-.015 0-.023-.008-.015-.012.004-.02 0-.02-.008 0-.012.012-.02.024-.02.015 0 .011-.007-.004-.015-.02-.016-.04-.11-.035-.192.004-.105.007-.128.027-.128.016 0 .023-.008.023-.02a.017.017 0 0 0-.015-.016c-.028 0 .004-.07.035-.082.02-.004.035-.015.035-.027 0-.008.016-.02.035-.023a.078.078 0 0 0 .043-.055c.008-.031.02-.04.043-.031.028.007.035 0 .035-.024.004-.02.008-.023.012-.012.004.012.016.024.027.024.008 0 .012-.016.008-.027-.008-.02-.004-.028.012-.024.012 0 .039-.008.062-.023a.219.219 0 0 1 .098-.02c.043.004.047 0 .02-.012-.032-.011-.02-.015.05-.027a.422.422 0 0 0 .118-.035c.023-.016.035-.016.046 0 .012.023.09.012.09-.012 0-.012.028-.015.063-.015.031 0 .058.007.058.015 0 .012.016.02.036.02.02 0 .035-.008.035-.02 0-.008.054-.015.133-.015.074 0 .128.007.128.015 0 .012.02.016.043.016.024-.004.04-.012.036-.02-.004-.008.02-.011.054-.011.035 0 .059.003.055.015-.016.024.082.035.11.012.015-.012.027-.012.034.004.008.012.043.023.082.027.036.004.07.016.075.027.004.008.02.02.031.02.016 0 .023-.008.016-.02-.004-.007-.004-.015.007-.015.012 0 .02.008.02.015 0 .012.02.016.043.008.027-.007.043-.004.043.012 0 .012.015.02.043.012.023-.004.047 0 .05.008 0 .011.036.02.075.027.039.004.07.016.074.023.004.008.02.012.04.004.019-.004.034 0 .034.012s.008.016.016.012c.012-.008.023 0 .031.015.004.016.02.028.027.028.055-.008.102.004.102.02 0 .01-.012.01-.023.007-.016-.008-.012-.004.004.012.015.02.023.02.03 0a.03.03 0 0 1 .028-.02c.012 0 .043-.023.07-.054a.397.397 0 0 1 .102-.07.168.168 0 0 0 .074-.063c.016-.024.035-.043.047-.043.02 0 .113-.094.11-.114-.004-.007.007-.015.019-.023.016-.004.027-.016.027-.027 0-.008.032-.051.07-.09.075-.078.09-.125.044-.145-.016-.004-.02 0-.016.024.008.027.008.027-.008 0a.149.149 0 0 0-.062-.043c-.028-.004-.043-.016-.035-.028.011-.02-.063-.054-.082-.039-.008.004-.016 0-.016-.011 0-.012-.012-.02-.027-.02-.016 0-.024-.008-.012-.023.008-.012-.004-.008-.024.007-.015.012-.027.016-.02.004.009-.011.005-.027-.003-.03-.012-.009-.02-.005-.02.007 0 .008-.007.02-.02.02-.007 0-.01-.016-.007-.028.004-.015.004-.027-.004-.027-.012 0-.02.008-.027.023-.004.016-.008.016-.008 0 0-.015-.016-.023-.027-.023-.016 0-.036-.016-.043-.031-.016-.024-.02-.028-.02-.004 0 .02-.008.02-.027-.008-.02-.024-.028-.028-.028-.008 0 .016-.003.016-.015-.008-.016-.027-.027-.027-.047-.012-.012.012-.023.016-.023.004 0-.011-.028-.023-.06-.03a.135.135 0 0 1-.081-.04c-.012-.027-.02-.027-.031-.008-.012.02-.02.02-.036-.008-.015-.027-.023-.027-.035-.011-.011.02-.02.02-.035-.004-.015-.016-.039-.024-.055-.02-.019.008-.039 0-.05-.02-.016-.023-.024-.027-.032-.011-.011.031-.039.027-.07-.004-.02-.02-.031-.023-.05-.008-.016.016-.036.012-.067-.011-.04-.024-.05-.024-.074-.004-.02.015-.031.015-.047 0-.008-.012-.031-.02-.05-.02-.017 0-.032-.008-.032-.02 0-.007-.027-.015-.059-.015-.05.004-.05.004-.011.016.039.011.03.015-.032.015-.039.004-.074-.004-.074-.015 0-.012-.094-.016-.242-.016-.152 0-.246.004-.246.016 0 .011-.028.02-.063.02-.039 0-.058-.009-.05-.02.003-.008-.008-.016-.028-.016s-.035.004-.035.012m6.14.875c0 .008.032.015.07.015.04 0 .083.012.095.028.02.02.03.02.039.004.008-.016.011-.016.02 0 .003.011.019.015.034.011.016-.007.024 0 .024.02 0 .015.012.023.023.015.016-.003.032 0 .04.012.003.008.019.012.027.008.011-.008.023.004.027.023a.071.071 0 0 0 .043.051c.02.004.031.016.031.024 0 .011.012.02.028.02.015 0 .023.007.015.027-.004.011 0 .023.012.023s.02.008.012.012c-.008.007-.004.023.008.039.015.02.015.027-.004.039-.012.012-.016.015-.004.02.05 0 .058.296.008.312-.012.004-.02.02-.02.035 0 .012.008.02.016.016.011-.008.02 0 .02.015a.027.027 0 0 1-.028.028c-.031 0-.035.035-.004.035.015.004.015.004 0 .011-.012.004-.027.04-.04.075-.027.074-.12.175-.179.187a.167.167 0 0 0-.082.043.116.116 0 0 1-.078.04c-.027 0-.047.007-.047.015s-.016.012-.035.008c-.02-.008-.055 0-.078.011a.121.121 0 0 1-.07.012c-.02-.008-.407-.016-.864-.02h-.832l-.004-.609-.008-.61.852.005c.469 0 .855-.004.863-.008.016-.02.07-.012.07.008m.145 2.105c.008.024.086.031.125.012a.055.055 0 0 1 .059.012.199.199 0 0 0 .066.027c.113.004.133.008.133.031 0 .031.035.04.035.004 0-.012.008-.012.024.008.011.016.03.023.043.02.011-.004.02 0 .02.011 0 .012.01.016.026.008.02-.008.024 0 .016.02s0 .027.027.03c.02 0 .043.005.055.005.043.004.121.09.121.129 0 .023.004.039.012.039.008-.004.015 0 .015.007a.07.07 0 0 0 .028.032c.015.011.02.015.004.015-.012 0-.02.012-.012.028.004.015.016.023.023.015.012-.004.016 0 .016.008a.03.03 0 0 1-.02.027c-.015.004-.007.016.016.04.035.03.04.043.024.093a.546.546 0 0 0-.008.14c.012.067.008.087-.02.106-.031.02-.031.028-.008.043.024.012.02.02-.007.035-.028.016-.028.024-.008.036.02.015.02.02.004.027-.016.004-.02.016-.016.027.008.008.004.016-.008.016-.008 0-.02.012-.02.027 0 .016-.015.032-.034.04-.016.003-.032.015-.032.023 0 .023-.047.07-.07.07-.008 0-.02.016-.027.04-.008.03-.012.034-.028.01-.015-.023-.015-.023-.015.005 0 .02-.012.031-.028.031-.015 0-.027.008-.027.02 0 .011-.008.015-.016.007-.007-.003-.02 0-.023.012-.008.02-.012.02-.027 0-.012-.02-.02-.02-.035.008-.016.027-.024.027-.036.012-.011-.02-.015-.02-.027.004-.008.02-.02.027-.043.02-.023-.009-.039 0-.05.019-.016.027-.024.027-.055.011-.036-.023-.09-.015-.09.012 0 .024-.082.024-.094 0-.012-.016-.156 0-.164.02-.004.007-.41.015-.902.015-.493 0-.887-.008-.88-.011.012-.004.016-.254.016-.715l-.008-.711H16.578c.008 0 .012-.008.012-.016 0-.023.187-.023.195-.004" fill="#fbfcfc"/><path d="M4.27 4.973c0 3.304.007 4.972.02 4.972.01 0 .015-1.668.015-4.972C4.305 1.668 4.3 0 4.289 0s-.02 1.668-.02 4.973m-1.304.32c0 2.184.004 3.074.004 1.98.004-1.097.004-2.882 0-3.972 0-1.09-.004-.192-.004 1.992m1.98-3.309a.15.15 0 0 1 .059.051c.008.016.02.024.02.012 0-.027-.06-.078-.09-.078-.012 0-.008.008.011.015m.625.625l.098.102c.023.027.035.035.027.02a.81.81 0 0 0-.168-.176c-.007 0 .012.023.043.054m8.332 2.664c0 1.446.004 2.032.004 1.309.004-.727.004-1.906 0-2.625 0-.719-.004-.125-.004 1.316M6.027 3.07c.047.051.106.106.125.121.02.016-.015-.027-.078-.093a.712.712 0 0 0-.129-.118c-.004 0 .032.04.082.09m22.414.293a.168.168 0 0 0 .063 0c.016-.004.004-.008-.031-.008s-.047.004-.032.008M39.035 4.56c0 .668 0 .937.004.605V3.95c-.004-.332-.004-.058-.004.61m-11.11-1.141c-.034.039-.046 4.297-.01 4.348.007.015.015-.739.015-2.153 0-2.054.004-2.18.03-2.203.017-.012.024-.023.013-.023-.012 0-.032.015-.047.031m1.066.46a.476.476 0 0 0 .106 0c.027-.003 0-.007-.055-.007-.059 0-.082.004-.05.008m-.442.687c0 .372.004.524.004.34.004-.18.004-.484 0-.672 0-.187-.004-.039-.004.332m4.273.075a.844.844 0 0 0 .14 0c.036-.004.005-.008-.073-.008s-.106.004-.067.008m3.625 0a.549.549 0 0 0 .114 0c.03-.004.003-.008-.06-.008-.062 0-.085.004-.054.008m-16.758.644c0 .031.008.043.016.031.012-.015 0-.086-.012-.086-.004 0-.004.024-.004.055m8.86.48c-.004.012-.008.36-.004.77l.004.742.008-1.515.71-.008-.355-.004c-.27-.004-.355 0-.363.016m9.222 1.043c0 .59.004.832.004.535.004-.293.004-.778 0-1.07 0-.297-.004-.055-.004.535m1.258.203c0 .476.004.672.008.43v-.868c-.004-.238-.008-.039-.008.438m-8.777-.496c.004.023.012.043.016.043.003 0 .003-.02.003-.043 0-.024-.003-.043-.011-.043-.012 0-.012.02-.008.043m-1.344.793c0 .007.082.015.184.015.101 0 .183-.008.183-.02a.579.579 0 0 0-.183-.015.65.65 0 0 0-.184.02m-.558.503c.02.016.12.024.12.004 0-.007-.027-.015-.062-.015-.039 0-.062.004-.058.011m.976.004c0 .016.067.016.082-.003.008-.004-.008-.012-.035-.012-.023 0-.047.008-.047.015m3.445.122a.211.211 0 0 0 .07 0c.016-.004 0-.008-.038-.008-.04 0-.055.004-.032.008" fill="#ececf4"/><path d="M2.977 5.29l.007 3.976.004-3.965c.004-2.176 0-3.965-.008-3.973-.007-.008-.011 1.774-.003 3.961m10.972-2.664c0 .012.422.016 1.23.016.813 0 1.235-.004 1.235-.016s-.422-.02-1.234-.02c-.809 0-1.23.008-1.23.02m6.292-.004h.395c.11-.004.02-.008-.196-.008-.218 0-.304.004-.199.008m4.508 0h.402c.11-.004.016-.008-.207-.008-.218 0-.308.004-.195.008M13.906 5.273l.008 2.657c0 .008.649.015 1.441.011.93 0 1.446-.003 1.446-.015s-.512-.02-1.438-.02H13.93V5.277c0-1.449-.004-2.636-.012-2.64-.008-.004-.012 1.18-.012 2.636m-3.324-2.617a.138.138 0 0 0 .07-.004c.02-.004 0-.007-.039-.007-.039.003-.05.003-.031.011m.613 0a.262.262 0 0 0 .078 0c.024-.008.004-.008-.039-.008s-.058 0-.039.008m5.489-.004a.076.076 0 0 0 .058 0c.02-.004.004-.007-.031-.007-.031 0-.047.003-.027.007m-6.301.028c.023.011.039.011.05 0 .016-.016.008-.02-.03-.02-.044 0-.048.004-.02.02m1.043 0c.015.02.023.02.039 0 .015-.016.012-.02-.02-.02-.03 0-.039.004-.02.02m-1.175.02c.02.015.027.015.043 0 .016-.016.012-.024-.02-.024-.035 0-.039.008-.023.023m9.734.07c0 .028.008.051.02.051.02 0 .02-.039 0-.07-.016-.023-.02-.016-.02.02M9.66 2.879c-.015.023-.012.023.016.016.02-.004.035-.016.035-.024 0-.023-.027-.02-.05.008m15.73.082c0 .02.007.035.015.035s.016-.016.016-.035c.004-.02-.004-.035-.012-.035-.012 0-.02.015-.02.035m-7.644.043c0 .02.14.156.152.144.004-.003-.023-.043-.066-.082-.074-.07-.086-.078-.086-.062m2.203.066c-.012.047-.012.086 0 .086s.02-.02.02-.043c0-.035-.016-.062-.02-.043m5.473.043c-.008.02-.008.04.004.047.008.012.015-.004.015-.031 0-.05-.003-.055-.02-.016M9.239 3.16c-.078.074-.133.145-.078.102a.878.878 0 0 0 .149-.153c0-.011-.008-.004-.07.051m3.523.05c-.02.024-.035.052-.028.06.012.011.082-.075.075-.094-.004-.008-.024.008-.047.035m7.152.059c0 .027.008.046.02.046.007 0 .015-.015.015-.035 0-.02-.008-.039-.015-.047-.012-.004-.02.012-.02.036m-7.238.035c-.016.015-.028.03-.02.039.008.008.016.004.016-.008s.004-.02.015-.012c.008.004.02-.004.024-.02.012-.03.008-.03-.035 0m7.222.145c0 .035.004.047.02.031.012-.015.012-.027 0-.05-.016-.032-.02-.028-.02.02m5.563.015c0 .023.008.047.02.047.007 0 .011-.02.007-.04-.011-.058-.027-.062-.027-.007m-14.89.027c0 .008.027.012.062.012.031 0 .058-.008.058-.016s-.027-.011-.058-.011c-.035 0-.063.003-.063.015m.52-.004c-.008.008.015.016.047.02.035.004.066-.004.07-.016.008-.012-.012-.015-.047-.015s-.066.003-.07.011m-.668.024c-.008.008.004.015.023.015.02 0 .04-.007.04-.015 0-.012-.012-.02-.028-.02-.012 0-.031.008-.035.02m6.133 0c-.016.011-.008.015.03.011.032 0 .056-.007.056-.015 0-.02-.051-.02-.086.004m-6.395.082c-.035.023-.023.027.031.008.02-.008.028-.02.02-.024-.012-.008-.031 0-.05.016m15.331 0c-.02.02-.015.094.004.094.012 0 .02-.024.02-.051 0-.059-.004-.063-.024-.043m-13.195.074c-.031.031-.047.055-.035.055.008 0 .039-.024.066-.051.067-.07.043-.07-.031-.004m-.117.09c0 .012.011.02.027.02a.047.047 0 0 0 .035-.02c.004-.008-.008-.016-.027-.016-.02 0-.035.008-.035.016m13.328.047c-.008.02-.004.039.008.05.011.012.015.004.015-.03 0-.055-.008-.063-.023-.02m-7.371.027c-.004.02 0 .047.008.055.015.015.02.004.02-.035 0-.067-.009-.075-.028-.02m-9.282.031c0 .024.008.04.016.04.012 0 .02-.016.02-.04 0-.015-.008-.035-.02-.035-.008 0-.016.02-.016.035m8.348.164c0 .055.004.067.016.043.011-.03.004-.117-.008-.117-.004 0-.008.035-.008.074m2.629-.03c0 .026.008.042.016.034.007-.004.015-.023.015-.043 0-.02-.008-.035-.015-.035-.008 0-.016.02-.016.043m5.703.012c0 .035.004.047.008.031a.086.086 0 0 0 0-.062c-.004-.016-.008-.004-.008.03m-16.691.079c0 .05.004.066.008.039a.315.315 0 0 0 0-.086c-.008-.023-.008 0-.008.047m10.969.094c.003.035.007.054.019.043.008-.008.008-.032-.004-.059-.015-.039-.015-.039-.015.016m-1.676-.004c-.004.011 0 .039.008.054.015.028.02.024.02-.023 0-.062-.013-.074-.028-.031m7.414.043c0 .035.008.05.015.047.012-.008.02-.028.02-.047 0-.016-.008-.04-.02-.043-.007-.008-.015.011-.015.043m-4.836.031c-.016.016-.016.074 0 .082.008.004.023 0 .035-.012.02-.023-.016-.093-.035-.07m3.941.055c.008.062.008.062.016.015.004-.027 0-.058-.008-.066-.012-.008-.012.012-.008.05m-15.793.008c-.008.02-.008.04 0 .043.016.02.032-.007.024-.043-.008-.027-.008-.027-.024 0m16.715.063c-.015.016-.012.094.004.094.008 0 .016-.024.016-.055.004-.055 0-.062-.02-.039m-4.89.113c0 .051.003.055.015.024.02-.047.02-.078 0-.078-.012 0-.02.023-.015.054m3.992.008c0 .024.008.04.015.031.008-.004.016-.02.016-.03 0-.017-.008-.032-.016-.036-.008-.004-.015.008-.015.035m-7.625.02l-.032.043.047-.028c.024-.02.043-.039.043-.047 0-.027-.023-.015-.058.032m2.71.062c-.007.027-.007.055 0 .063.02.02.032-.008.024-.059l-.008-.05-.015.046m5.828.035c-.008.02-.004.043.008.055.011.016.02.004.02-.035 0-.067-.013-.074-.028-.02m-4.676.008a.115.115 0 0 1 .012.035c0 .004.008.008.015.008.008 0 .012-.016.008-.035-.004-.02-.015-.035-.027-.035-.008 0-.012.011-.008.027m-4.102.05c-.027.016-.03.028-.015.028a.123.123 0 0 0 .062-.027c.043-.031.012-.031-.047 0m7.883.027c0 .028.004.051.016.051.008 0 .012-.02.012-.043 0-.023-.004-.047-.012-.05-.012-.005-.016.015-.016.042m-8.152.035c.004.008.023.016.043.016.02 0 .039-.008.043-.016.008-.011-.012-.02-.043-.02-.031 0-.05.009-.043.02m3.191.086c0 .032.008.055.02.055.008 0 .015-.02.015-.043 0-.023-.007-.047-.015-.055-.012-.004-.02.012-.02.043m5.887.02c0 .035.004.047.008.031a.168.168 0 0 0 0-.062c-.004-.016-.008-.004-.008.03m-4.992.063c0 .024.008.047.015.055.012.004.02-.012.02-.043 0-.031-.008-.055-.02-.055-.007 0-.015.02-.015.043m4.082.008c0 .031.004.059.015.063.008.007.016-.012.016-.043 0-.067-.031-.086-.031-.02m-6.902.07c-.028.028-.051.06-.051.075 0 .011.027-.008.062-.043l.063-.074c0-.02-.035-.004-.075.042m1.91.07c0 .044.005.06.02.044.012-.012.012-.032 0-.059-.015-.043-.015-.039-.02.016m5.915.039c0 .027.008.05.015.05.008 0 .016-.023.016-.05 0-.031-.004-.055-.016-.055-.007 0-.015.024-.015.055m-5.012-.008c-.016.02-.012.113.008.113.008 0 .015-.027.015-.062 0-.063 0-.07-.023-.051m4.125.086c0 .039.004.055.008.031a.21.21 0 0 0 0-.07c-.004-.016-.008 0-.008.039m-6.602.098c0 .023.157.183.168.171.008-.007-.03-.05-.078-.097-.05-.05-.09-.082-.09-.074m7.52-.004c-.02.015-.016.105.004.117.008.008.015-.02.015-.059 0-.078-.003-.078-.019-.058m-5.066.129c0 .035.003.046.007.03a.168.168 0 0 0 0-.062c-.004-.015-.007-.004-.007.032m-7.985.043a.504.504 0 0 0 .094.082c.008 0-.02-.04-.066-.082a.779.779 0 0 0-.094-.079.352.352 0 0 0 .066.079m12.149-.024c0 .027.007.05.015.05.02 0 .024-.081 0-.097-.008-.004-.015.016-.015.047m-14.739.05c-.02.017-.02.017.012.017.024.003.04-.004.04-.016 0-.024-.017-.024-.052 0m8.317.035a.042.042 0 0 0 .031.031c.012.004.02 0 .016-.015a.061.061 0 0 0-.032-.032c-.015-.003-.02.004-.015.016m1.328.07c0 .032.004.055.015.055.008 0 .016-.023.012-.055 0-.027-.008-.05-.015-.05-.008 0-.012.023-.012.05m6.012.012c-.008.027-.004.055.003.067.016.011.02 0 .02-.047 0-.078-.008-.086-.023-.02m-14.985.035c.02.02.063.024.063.004 0-.008-.016-.015-.04-.015-.019 0-.03.007-.023.011m5.89.008c0 .008.044.016.099.012.05 0 .093-.008.093-.016s-.043-.015-.093-.015c-.055 0-.098.007-.098.02m3.996.034c0 .035 0 .047.008.032a.168.168 0 0 0 0-.063c-.008-.016-.008-.004-.008.031m-3.688-.02c-.007.009.008.016.032.016.023 0 .039-.007.035-.015-.004-.008-.02-.016-.035-.016-.012 0-.028.008-.032.016m7.887.054c0 .04.008.07.016.07s.015-.03.015-.07c0-.039-.007-.07-.015-.07-.012 0-.016.031-.016.07m-13.77-.003c.016.019.063.019.063.003 0-.011-.02-.02-.039-.02-.02 0-.031.009-.023.016m8.636.157c0 .035.008.058.02.05.008-.003.015-.027.015-.05 0-.024-.007-.047-.015-.055-.012-.008-.02.016-.02.055m-2.226-.035c-.008.003.012.035.043.062.027.031.054.05.062.043.004-.004-.015-.035-.043-.062-.031-.028-.058-.047-.062-.043m4.183 0c-.007.007 0 .03.012.05.027.036.031.024.012-.035-.008-.015-.02-.023-.024-.015m4.102.058c0 .047.004.063.008.043a.289.289 0 0 0 0-.082c-.004-.02-.008-.004-.008.04m-12.8.03c-.009.008-.013.024-.013.04 0 .019.004.023.02.007.008-.011.016-.03.012-.039-.004-.011-.012-.015-.02-.008m7.637.051c0 .031.008.063.015.07.012.008.016-.019.016-.062 0-.039-.008-.07-.015-.07-.008 0-.016.027-.016.062m-8.762-.023a.19.19 0 0 1 .05.039c.009.012.013.012.013-.004 0-.012-.016-.027-.036-.04-.046-.023-.07-.023-.027.005m13.02.058c0 .043.008.079.015.079.008 0 .012-.036.012-.079 0-.043-.004-.082-.012-.082s-.015.04-.015.082m-12.89.043c.034.032.065.051.07.043.011-.008-.032-.047-.094-.082-.02-.011-.008.008.023.04M12.926 6c-.008.016-.012.035-.004.04.015.019.031-.005.023-.04-.008-.031-.008-.031-.02 0m6.716.145c0 .046.004.066.007.039a.346.346 0 0 0 0-.09c-.003-.02-.007 0-.007.05m6.086.036c0 .043.003.078.015.078.008 0 .016-.035.016-.078s-.008-.082-.016-.082-.015.039-.015.082M12.94 6.16c-.007.024-.004.059.008.074.016.028.016.02.02-.043 0-.082-.012-.097-.028-.03m4.688.058c-.004.066-.004.066.012.015.007-.03.007-.062 0-.07-.008-.008-.012.016-.012.055m2.898.062c0 .043.008.086.02.102.012.02.015-.004.012-.074-.004-.118-.032-.141-.032-.028m4.309.032c0 .054.004.074.008.046a.408.408 0 0 0 0-.097c-.004-.024-.008-.004-.008.05m-12.793-.019c.004.027.012.047.02.043.019-.012.015-.094-.004-.094-.012 0-.016.024-.016.051m5.582.117c.004.04.004.05.012.031a.138.138 0 0 0-.004-.07c-.004-.02-.008 0-.008.04m-5.582.023c.004.03.012.054.02.054.019 0 .015-.082-.004-.097-.012-.004-.02.011-.016.043m7.566.046c0 .043.004.079.012.079s.016-.036.016-.079c0-.043-.008-.078-.016-.078s-.016.035-.012.078m-6.664-.023a.096.096 0 0 0 .004.066c.012.02.016.008.016-.039 0-.074-.008-.082-.02-.027m12.809-.012c-.016.043-.012.153.004.153.008 0 .015-.043.015-.09.004-.094-.003-.11-.02-.063m-7.19.067a.06.06 0 0 0 .007.05c.012.02.016.012.016-.023 0-.055-.008-.062-.023-.027m1.953.144c0 .059.004.082.007.051a.475.475 0 0 0 0-.105c-.003-.028-.007-.004-.007.054m4.336.04c0 .074.003.093.015.07.02-.051.02-.149 0-.16-.012-.008-.015.027-.015.09m-11.938-.04c0 .016.008.032.02.035.007.008.015-.003.015-.023s-.008-.035-.015-.035c-.012 0-.02.012-.02.023m5.617.02c0 .015.008.027.02.027.008 0 .015-.012.015-.027 0-.016-.007-.028-.015-.028-.012 0-.02.012-.02.028m-9.402.047c-.047.054-.055.066-.031.066.015 0 .097-.105.086-.113-.004-.004-.028.015-.055.047m3.77.043c0 .011.007.023.015.023.012 0 .02-.012.02-.023 0-.016-.008-.028-.02-.028-.008 0-.016.012-.016.028m6.688.097c0 .055.008.098.016.094.02-.012.02-.18 0-.191-.008-.004-.016.039-.016.097m-10.598 0c-.023.028-.039.051-.031.051a.223.223 0 0 0 .063-.05c.03-.032.043-.055.035-.055-.012 0-.04.023-.067.054m16.785-.011c-.003.027 0 .046.008.046s.016-.02.016-.046c0-.024-.004-.043-.008-.043s-.012.02-.016.043m-13.976-.008c0 .011-.012.02-.027.02-.016 0-.028.003-.028.015 0 .023.067 0 .078-.027.004-.016 0-.024-.008-.024-.011 0-.015.008-.015.016m8.687.183a.341.341 0 0 0 .004.125c.016.067.016.063.016-.054 0-.141-.004-.16-.02-.07m-3.515-.005c.011.02.058.02.058 0 0-.007-.015-.011-.035-.015-.02 0-.031.004-.023.015m7.902.106c0 .066.008.121.016.121.02 0 .02-.223 0-.238-.012-.004-.016.043-.016.117m-14.547-.09c0 .008.012.02.028.02.015 0 .027-.012.027-.02 0-.012-.012-.02-.027-.02-.016 0-.028.008-.028.02m.973.004c.012.02.062.016.062-.004 0-.008-.015-.016-.035-.012-.02 0-.031.008-.027.016m5.496-.004c.012.02.094.024.094.004 0-.008-.024-.016-.051-.016-.031-.004-.05.004-.043.012m-6.355.02c.015.02.09.023.105.003.004-.007-.02-.015-.055-.019s-.054.004-.05.016m.734 0c-.004.007.008.015.027.015.02 0 .04-.008.043-.015.004-.004-.008-.012-.027-.012a.08.08 0 0 0-.043.012m3.687 0c-.02.007.282.015.868.015.59 0 .898-.008.898-.015 0-.028-1.73-.028-1.766 0m-4.129.023c.012.012.153.02.165.004.007-.004-.028-.012-.079-.012-.054 0-.09.004-.086.008m.207.008c0 .008.02.012.043.008.024-.004.043-.012.043-.016s-.02-.008-.043-.008c-.023 0-.043.008-.043.016m8.63.215c0 .086.007.12.015.105.023-.035.023-.176 0-.21-.012-.02-.016.015-.016.105m-6.902-.078c-.016.02-.016.043.004.043.008 0 .02-.012.027-.028.008-.027-.011-.035-.03-.015m5.64.007c-.012.008-.02.02-.012.028s.023.004.031-.008c.028-.027.012-.04-.02-.02m7.493.125c0 .07.004.125.008.118a.697.697 0 0 0 0-.239c-.008-.008-.008.047-.008.121m-13.2-.02a.252.252 0 0 0-.058.067c-.027.043-.023.043.031-.011.078-.079.082-.086.028-.055m5.574.055c-.031.03-.059.062-.05.066.003.004.034-.02.07-.055.078-.082.066-.086-.02-.011m2.297.152c-.016.02-.012.277.004.308.011.016.015-.035.015-.148 0-.094 0-.172-.004-.172 0 0-.007.004-.015.012m4.437.121c0 .039.004.055.008.031a.21.21 0 0 0 0-.07c-.004-.016-.008 0-.008.039m-5.355.14c0 .051.004.067.008.044a.344.344 0 0 0 0-.09c-.004-.024-.008 0-.008.047m5.355.039c0 .054.004.078.008.047a.476.476 0 0 0 0-.106c-.004-.027-.008 0-.008.059m.907.004c0 .093.027.109.03.02.005-.036-.003-.075-.015-.079-.008-.008-.015.016-.015.059M9.905 7.82c0 .008.012.016.024.016.015 0 .027-.008.027-.016 0-.011-.012-.02-.027-.02-.012 0-.024.009-.024.02m.477.086c.008.008.039.016.074.016.035 0 .059-.004.05-.016-.003-.008-.038-.015-.07-.015-.035 0-.058.007-.054.015m.941 0c0 .012.012.02.024.02.015 0 .027-.008.027-.02 0-.008-.012-.015-.027-.015-.012 0-.024.007-.024.015m5.625 0c-.004.008.016.012.043.012.031 0 .055-.004.055-.012s-.02-.015-.043-.015c-.024 0-.047.007-.055.015m-6.273.016c0 .008.11.016.238.02.164 0 .234-.005.215-.016-.031-.02-.453-.024-.453-.004" fill="#f4f4f6"/><path d="M28.488 3.367c-.023.008.149.012.383.012s.41-.008.395-.012c-.043-.02-.72-.015-.778 0m10.18-.004c.168.012.355.012.355 0a.77.77 0 0 0-.21-.008c-.122 0-.184.004-.145.008m-10.512.024c-.031.011-.023.015.051.015.05 0 .09-.007.09-.015 0-.02-.074-.02-.14 0m1.234 0c.007.008.035.015.066.015.043 0 .05-.004.031-.015-.035-.024-.11-.024-.097 0m-1.418.015c-.004.012.007.02.035.02.023 0 .043-.008.043-.02 0-.007-.012-.015-.031-.015-.02 0-.04.008-.047.015m1.586.004c0 .02.046.02.058 0 .004-.008-.008-.011-.027-.015-.016 0-.031.004-.031.015m.277.067c0 .007.02.02.043.027.023.004.058.016.074.02.02.007.004-.004-.027-.024-.07-.043-.09-.047-.09-.023m.16.074c0 .012.008.015.016.008.008-.004.02 0 .023.011.004.016.016.02.024.008.007-.008.003-.02-.012-.027-.035-.024-.05-.024-.05 0m.124.07c.024.016.043.028.047.024.012-.008-.055-.059-.074-.059-.008 0 .004.016.027.035m.067.031c0 .028.07.082.082.067.007-.008.003-.02-.008-.024a.163.163 0 0 1-.047-.03c-.016-.016-.027-.02-.027-.013m.19.192c0 .02.036.062.06.062.007 0 .011-.011.011-.023s-.004-.016-.012-.008c-.003.008-.019-.004-.035-.02-.011-.015-.02-.023-.023-.011m-1.637.027c-.023.008 0 .012.082.012.164-.004.23-.027.078-.027-.07 0-.14.003-.16.015m.387-.004c.004.012.043.02.082.02.055 0 .066-.004.05-.02-.034-.02-.148-.02-.132 0m.574.149c.008.023.047.039.047.015 0-.007-.012-.02-.027-.027-.016-.008-.028-.004-.02.012m.266.656c-.008.02-.008.039-.004.043.02.02.035-.008.027-.043-.008-.031-.012-.031-.023 0m2.597 0c0 .008.028.012.063.012s.062-.008.062-.016c0-.012-.027-.016-.062-.016-.035.004-.063.012-.063.02m.278-.012a.24.24 0 0 0 .105 0c.028-.004 0-.004-.058-.004-.059 0-.078 0-.047.004m.273.008c.008.008.04.016.074.016.079 0 .063-.028-.02-.032-.042-.003-.062.004-.054.016m3.125 0c0 .008.02.016.043.016.024 0 .043-.008.043-.016 0-.012-.02-.02-.043-.02-.023 0-.043.008-.043.02m.223-.008a.133.133 0 0 0 .078 0c.023-.004.004-.008-.04-.008-.042 0-.058.004-.038.008m.234.008c0 .008.028.016.063.016.05 0 .058-.004.039-.016-.031-.023-.102-.023-.102 0m-4.207.02c.02.015.028.015.043 0 .016-.016.012-.02-.02-.02-.035 0-.038.004-.023.02m.785-.004c.004.011.02.02.035.02.012 0 .024-.009.024-.02 0-.008-.016-.016-.035-.016-.02 0-.031.008-.024.016m2.868 0c-.004.011.007.02.027.02s.035-.009.035-.02c0-.008-.012-.016-.023-.016a.06.06 0 0 0-.04.016m-1.058 1.605c0 1.047.008 1.586.02 1.586.011 0 .015-.539.015-1.586 0-1.047-.004-1.586-.016-1.586-.011 0-.02.54-.02 1.586m6.087-1.558c-.008.015-.004.027.008.02.027-.009.043-.048.02-.048-.013 0-.024.012-.028.028m-8.848.007c0 .008.012.016.024.016.015 0 .027-.008.027-.016 0-.011-.012-.02-.027-.02-.012 0-.024.009-.024.02m1.602.024c-.008.015-.012.035-.004.043.016.015.031-.008.023-.043-.008-.031-.008-.031-.02 0m1.524-.012a.132.132 0 0 0-.011.059c0 .039.003.039.019.011.02-.035.016-.093-.008-.07m.48.012c-.019.023-.015.023.016.015.02-.003.035-.015.035-.023 0-.023-.027-.02-.05.008m-5.418.054c-.004.024-.016.06-.02.075-.012.031-.012.031.016.004.02-.02.027-.04.023-.047-.008-.012-.004-.024.008-.032.02-.011.023-.042 0-.042-.008 0-.02.02-.027.043m6.625-.032l.066.043c.043.035.07.043.07.02 0-.016-.12-.074-.148-.074-.008.003-.004.007.012.011m-4.989.024c-.015.008-.02.023-.011.03.008.009.02.005.023-.007.004-.012.016-.02.024-.012.007.004.015 0 .015-.011 0-.024-.015-.024-.05 0m3.68-.004c-.013.004-.024.015-.024.027s.008.012.023-.004c.012-.011.027-.015.035-.008.008.008.012.004.012-.007 0-.024-.012-.024-.047-.008m-2.14.02c0 .019.074.042.085.027.012-.012-.035-.043-.062-.043-.012 0-.023.008-.023.015m6.68-.004c-.024.024-.013.04.015.032.012-.008.023-.02.023-.028 0-.02-.023-.02-.039-.004m.645.024c-.102.066-.145.105-.11.105.016 0 .032-.008.032-.015 0-.012.027-.032.058-.047.035-.016.067-.043.07-.055.012-.031.012-.031-.05.012m-11.137.055c-.031.054-.012.062.023.007.016-.023.02-.043.012-.043-.004 0-.023.016-.035.036m3.965 0c.055.035.094.035.094-.004 0-.008-.02-.012-.043-.004-.024.004-.047 0-.055-.008-.004-.012-.02-.02-.031-.02-.012 0 .004.016.035.036m6.426-.004a.491.491 0 0 0-.063.05.153.153 0 0 1-.055.032c-.02.007-.039.023-.043.035-.007.015-.003.023.016.015.012-.003.024-.015.024-.023s.015-.02.035-.027c.035-.012.172-.114.148-.114-.012 0-.035.016-.062.032m-8.286.011c-.02.012-.027.028-.023.035.008.008.023 0 .04-.015.01-.016.03-.024.034-.016.008.008.012 0 .012-.008 0-.03-.02-.027-.063.004m3.473.035c0 .036.012.063.02.063.011 0 .015-.027.015-.063-.004-.035-.011-.062-.02-.062-.007 0-.015.027-.015.063m.2-.032c-.02.02-.051.04-.071.051-.016.012-.027.023-.023.031.007.004.043-.02.086-.05.042-.036.07-.063.058-.063a.158.158 0 0 0-.05.031m-5.2.035c.008.032-.07.141-.168.239a.589.589 0 0 0-.094.113c.016.016.2-.172.215-.219.004-.02.02-.039.032-.039.007 0 .011-.004.007-.012-.008-.003 0-.023.016-.035.027-.031.031-.058.008-.058-.012 0-.016.004-.016.011m1.418.051c-.023.024-.039.043-.027.043.008 0 .035-.02.058-.043.055-.058.035-.058-.03 0m5.593.031c.039.047.082.102.094.13.02.042.05.058.05.027 0-.024-.12-.164-.175-.207-.024-.02-.012.004.03.05m-1.96-.003c-.02.02-.024.035-.016.035.02 0 .063-.055.051-.063-.004-.004-.02.008-.035.028m5.242.007c-.027.024-.031.024 0 .024.016.004.027-.008.027-.016 0-.012.012-.015.024-.008.012.008.016.004.008-.007-.016-.024-.016-.024-.059.007m-11.078.067c-.082.054-.07.07.012.023.039-.02.07-.043.07-.05 0-.02-.023-.016-.082.027m10.289.004c-.004.015-.027.035-.05.047-.024.007-.044.023-.04.035 0 .02 0 .02.012 0 .008-.012.023-.024.031-.024.035 0 .102-.062.078-.074-.008-.008-.023 0-.031.016m.668.02c-.027.023-.04.038-.023.034l.054-.02c.028-.01.059-.062.035-.062-.007 0-.035.024-.066.047m-7.39-.012c0 .012.011.02.023.02.015 0 .027-.008.027-.02 0-.007-.012-.015-.027-.015-.012 0-.024.008-.024.015m2.887 0c0 .012.016.02.035.02.02 0 .032-.008.024-.02-.004-.007-.02-.015-.035-.015-.012 0-.024.008-.024.015m-3.648.02c-.008.008-.02.012-.028.008s-.02 0-.027.008c-.004.011 0 .02.016.02.027 0 .097-.052.07-.056-.012 0-.027.008-.031.02m.847 0c0 .008.012.016.028.016.011 0 .023-.008.023-.016 0-.012-.012-.02-.023-.02-.016 0-.028.008-.028.02m-1.672.094l-.03.054.046-.043c.047-.043.059-.07.031-.07-.008 0-.027.024-.047.059m.68-.04c-.023.012-.039.028-.039.036 0 .008.023.004.05-.012.079-.039.067-.062-.01-.023m1.148-.008c0 .012.02.023.043.027.027.004.046 0 .046-.008a.017.017 0 0 0-.015-.015.234.234 0 0 1-.047-.008c-.016-.008-.027-.004-.027.004m3.5.023c.046.04.07.043.07.02 0-.016-.074-.055-.102-.055-.008 0 .008.016.032.035m-1.086 0c0 .008-.004.016-.012.012-.02-.004-.16.094-.16.113 0 .012.027-.004.062-.03a.534.534 0 0 1 .106-.067c.039-.012.054-.047.023-.047-.012 0-.02.008-.02.02m4.622 0c-.012.007-.02.019-.012.027.008.007.023.004.035-.008.024-.024.012-.04-.023-.02M29.34 5.23c-.008.008 0 .02.015.02.012 0 .032-.012.036-.02.007-.007 0-.02-.016-.02-.012 0-.031.013-.035.02m8.27-.003c0 .023.03.066.042.054.008-.008 0-.027-.015-.043-.016-.015-.028-.02-.028-.011m-9.066.023c0 .008.129.016.348.016.222 0 .351-.008.351-.016 0-.012-.129-.02-.351-.02-.22 0-.348.008-.348.02m5.129.008c.012.015.023.023.027.02.008-.005.02 0 .035.015.032.031.059.035.059.008 0-.012-.008-.016-.02-.008-.007.004-.015.004-.015-.008 0-.008-.024-.023-.055-.035-.047-.016-.05-.016-.031.008m3.418.015a.157.157 0 0 0 .055.051c.039.016 0-.05-.047-.078-.035-.02-.035-.016-.008.027m3.344-.02c-.02.017-.032.032-.024.04.004.004.024-.008.04-.027.038-.043.03-.047-.016-.012m-8.25.02c-.02.023-.02.027.004.027a.038.038 0 0 0 .035-.028c.007-.011.004-.023-.004-.023s-.024.012-.035.023m-.614.043c-.023.043-.023.055 0 .055.012 0 .016-.008.008-.016-.004-.011-.004-.02.008-.02.008 0 .02-.01.023-.026.016-.04-.015-.032-.039.007m8.727.04c-.047.039-.078.07-.07.07.007 0 .039-.02.066-.047l.078-.059c.016-.008.024-.02.02-.023-.004-.008-.047.02-.094.058m-10.219-.007c-.082.047-.11.093-.055.093.016 0 .024-.007.02-.023-.008-.016-.004-.027.012-.027a.19.19 0 0 0 .074-.043c.062-.059.055-.059-.05 0m7.562-.028c0 .008.011.016.02.016.01 0 .015.008.007.016a.03.03 0 0 0 .008.03c.02.013.023-.01.008-.054-.012-.031-.043-.035-.043-.008m-3.817.79c.004.5.012.788.02.788.027 0 .023-1.554-.004-1.566-.016-.008-.02.156-.016.777m5.79-.777c-.02.02-.012.04.015.027.016-.004.027-.015.027-.023 0-.02-.023-.024-.043-.004m-7.55.05c-.02.024-.032.044-.024.044a.25.25 0 0 0 .09-.078c0-.024-.031-.008-.066.035m5.117-.004c.008.016.02.031.035.035.015.008.02 0 .015-.016a.089.089 0 0 0-.035-.03c-.015-.009-.02 0-.015.01m-1.598.052c-.031.027-.055.058-.047.062.004.008.031-.015.063-.047.066-.078.054-.09-.016-.015m3.898.008a.961.961 0 0 1-.105.078c-.016.007-.02.02-.016.023.004.008.051-.02.098-.059.047-.039.094-.066.098-.062.004.004.011-.004.02-.02.015-.039-.009-.03-.095.04m-9.414.007c0 .008.008.012.016.008.008-.008.02-.004.027.008.004.008.02.02.032.02.007 0 .004-.012-.016-.028-.04-.031-.059-.035-.059-.008m10.114-.004c0 .012-.008.02-.02.016s-.023.004-.027.02c-.008.02 0 .02.027.003.031-.02.05-.054.028-.054-.004 0-.008.008-.008.015m-8.215.051c-.016.02-.024.04-.016.047.008.004.004.012-.008.012-.007 0-.023.011-.027.023-.02.055.035.008.063-.05.035-.07.03-.079-.012-.032m-1.777.004c0 .008.023.024.054.035.074.024.082.024.04-.008-.016-.011-.04-.02-.048-.015-.007.004-.011 0-.011-.012 0-.008-.008-.016-.02-.016-.008 0-.015.004-.015.016m7.523.027c0 .016.008.028.02.028.007 0 .015-.012.015-.028 0-.015-.008-.027-.016-.027-.011 0-.02.012-.02.027m2.325.02c-.035.027-.066.055-.066.066 0 .008.02 0 .043-.02.02-.023.047-.038.058-.038.012 0 .024-.012.028-.028.015-.035.015-.035-.063.02m-4.52 1.148c0 .657.005.922.005.59.003-.328.003-.863 0-1.187 0-.324-.004-.055-.004.597m-5.188-1.125c0 .008.02.024.043.032.05.023.059.011.012-.024-.035-.027-.055-.031-.055-.008m1.11.008c-.028.028-.047.117-.028.117.012 0 .059-.125.05-.132-.003-.004-.01.003-.023.015m7.829.016c-.024.023-.063.055-.086.074a.83.83 0 0 1-.098.066c-.031.02-.059.043-.059.051 0 .028.008.024.125-.074.16-.125.196-.156.18-.156a.176.176 0 0 0-.062.039m-1.524-.012c-.02.02-.015.094.004.094.012 0 .02-.024.016-.05-.004-.06-.004-.06-.02-.044m2.176.043c-.016.008-.02.02-.012.027.008.008.02.004.032-.007.027-.028.011-.04-.02-.02m-9.461.031c.035.043.047.047.047.024 0-.012-.02-.028-.04-.04-.038-.019-.038-.019-.007.016m.063.035c0 .008.035.051.078.094.078.078.082.078.054.02-.015-.031-.039-.055-.047-.055-.007 0-.03-.016-.05-.035-.02-.02-.035-.031-.035-.024m1.324.024c-.004.02 0 .035.004.035.007 0 .02-.016.023-.035.008-.02.004-.04-.004-.04s-.015.02-.023.04m7.98-.027c-.015.02-.015.043.004.043.008 0 .02-.012.027-.028.008-.027-.011-.035-.03-.015M29.3 5.758a.376.376 0 0 0 .094 0c.027-.004.007-.008-.047-.008-.055 0-.075.004-.047.008m8.027.027c0 .027.008.047.016.047.023 0 .023-.012 0-.062-.012-.032-.016-.028-.016.015m-7.805-.004c0 .008.016.016.036.016.02 0 .035-.008.035-.016 0-.011-.016-.02-.035-.02-.02 0-.036.009-.036.02m.094.016c.008.012.024.02.04.02.011 0 .023-.008.023-.02 0-.008-.016-.016-.035-.016-.02 0-.032.008-.028.016m.188.062c.023.032.05.036.05.012 0-.008-.015-.02-.035-.027-.03-.008-.035-.004-.015.015m9.793 0c-.016.016-.035.028-.043.028-.09.004-.125.136-.04.168.012.008.008-.008-.015-.032l-.04-.043.048-.035c.07-.05.14-.11.125-.113a.083.083 0 0 0-.035.027m-9.727.028c0 .008.016.02.04.027.019.004.073.05.124.098.094.093.14.105.055.015-.059-.062-.219-.168-.219-.14m.848.035a.29.29 0 0 1 .054.09c.012.031.043.05.043.023 0-.02-.109-.168-.125-.168-.011 0 .004.028.028.055m.601.094c-.02.05-.015.093.008.07.008-.008.016-.035.012-.059-.004-.039-.008-.039-.02-.011m-1.148.171c.023.04.043.067.047.063.011-.008-.051-.133-.067-.133-.011 0 0 .031.02.07m8.836-.058c0 .004.012.02.027.035.028.027.031.024.016-.02-.012-.027-.043-.039-.043-.015m.086.09c.004.008.062.074.133.144.07.074.128.125.128.117a.478.478 0 0 0-.097-.117c-.051-.05-.102-.11-.113-.125-.016-.031-.051-.043-.051-.02m-8.871.083a.06.06 0 0 0 .015.039c.012.004.02-.004.02-.016a.048.048 0 0 0-.02-.039c-.008-.004-.015 0-.015.016m9.71.176c.172.164.239.222.196.164-.055-.075-.3-.313-.32-.313-.012 0 .043.067.125.149m-9.696-.051c0 .027.008.047.02.047.008 0 .015-.02.015-.047 0-.024-.007-.043-.015-.043-.012 0-.02.02-.02.043m.672.133c0 .093.004.132.008.086a1.205 1.205 0 0 0 0-.168c-.004-.047-.008-.008-.008.082m.399-.036c0 .028.007.059.015.063.012.008.02-.012.02-.043 0-.027-.008-.055-.02-.063-.008-.007-.015.012-.015.043m-1.067.04c0 .046.004.09.016.093.02.016.02-.066 0-.133-.012-.035-.016-.027-.016.04m9.434.253c.168.168.304.301.308.293.004-.011-.043-.066-.105-.125l-.297-.293a1.877 1.877 0 0 0-.2-.183c-.007 0 .126.137.294.308m-8.352-.14c0 .015.008.027.02.027.008 0 .015-.012.015-.027 0-.016-.007-.028-.015-.028-.012 0-.02.012-.02.028m.508.16c0 .027.055.137.063.129.007-.008 0-.035-.016-.063-.016-.03-.024-.058-.016-.066.004-.004 0-.008-.011-.008-.012 0-.02.004-.02.008m-.98.086c0 .016.007.027.02.027.007 0 .015-.011.015-.027 0-.012-.008-.024-.016-.024-.012 0-.02.012-.02.024m3.415.086c0 .054.004.066.015.05.024-.035.024-.124 0-.124-.008 0-.015.03-.015.074m-4.211.023c-.028.028-.078.07-.117.098-.04.027-.067.05-.06.05.024 0 .099-.042.099-.054 0-.008.007-.012.015-.012.016.008.09-.058.11-.097.023-.043.003-.036-.047.015m1.86-.023c.034.062.097.137.116.137.012 0 .008-.008-.008-.016a.204.204 0 0 1-.05-.07c-.012-.028-.032-.059-.047-.063-.016-.008-.02-.004-.012.012m8.563-.012c0 .016.324.324.332.316.007-.007-.301-.324-.317-.328-.008 0-.015.008-.015.012m-6.727.055c-.004.02-.016.043-.02.058-.007.016.004.008.024-.015.039-.051.047-.074.023-.074-.007 0-.02.015-.027.03m-2.277.044c.011.023.027.05.023.058 0 .012.012.024.024.028.023.008-.028-.098-.055-.114-.012-.007-.008.004.008.028m-.715.062c-.016.04.004.059.023.024.024-.032.024-.051.004-.051-.008 0-.02.012-.027.027m3.523.047c0 .035.008.067.02.067.023 0 .023-.07 0-.106-.012-.02-.02-.012-.02.04m-2.73.046c0 .02.074.113.082.102.012-.008-.051-.118-.067-.118a.017.017 0 0 0-.015.016m.597.027c.036.043.09.07.079.04a.153.153 0 0 0-.059-.047c-.04-.02-.043-.016-.02.007m1.387.02c-.035.035-.039.039-.012.027.036-.015.09-.074.07-.074-.003 0-.03.023-.058.047m-4.992-.008c0 .008.016.016.035.016.02 0 .031-.008.027-.016a.048.048 0 0 0-.039-.02c-.011 0-.023.008-.023.02m.953 0c-.004.008.004.016.024.016s.039-.008.046-.016c.004-.012-.003-.02-.023-.02s-.04.008-.047.02m-23.922.656c-.36.36-.644.653-.636.653.011 0 1.296-1.297 1.289-1.305-.004 0-.297.289-.653.652m23.133-.64c-.004.011.031.02.098.02.058 0 .105-.009.105-.02 0-.008-.043-.016-.094-.016-.054 0-.101.008-.109.016m.57 0c0 .011.028.02.063.02.031 0 .058-.009.058-.02 0-.008-.027-.016-.058-.016-.035 0-.063.008-.063.016m1.332.062a.758.758 0 0 1-.136.11c-.032.015-.059.039-.059.046 0 .024.027.012.074-.027.121-.11.149-.133.18-.168.055-.066.02-.047-.059.04m2.801-.005c-.035.016-.055.028-.047.035.024.012.09-.011.106-.039.004-.011.008-.02.004-.015 0 0-.032.008-.063.02m6.84.003c.05.07.227.238.25.238.02 0-.129-.152-.234-.238l-.043-.035.027.035m-5.95.024c0 .02.009.043.016.046.012.008.02-.003.02-.023s-.008-.039-.02-.047c-.007-.008-.015.004-.015.024m-2.645.011c.047.059.145.153.164.153.008 0 .008.008.004.015-.008.012.004.02.02.02.023 0 .008-.027-.055-.09-.094-.098-.184-.16-.133-.098m.86.063c0 .008.015.015.039.015.03 0 .035-.003.011-.015-.03-.024-.05-.024-.05 0m.62 0c-.007.008.005.015.024.015.02 0 .04-.007.04-.015 0-.012-.013-.02-.028-.02-.012 0-.031.008-.035.02m-.528.015c-.004.012.008.02.028.02s.039-.008.043-.02c.008-.007-.004-.015-.024-.015s-.039.008-.047.015m.387 0c.008.012.027.02.047.02.016 0 .031-.008.031-.02 0-.007-.02-.015-.043-.015-.027 0-.043.008-.035.015m.899.004a.055.055 0 0 0-.032.043c0 .035.028.02.051-.027.023-.04.02-.043-.02-.016m.024.067c.004.02.012.031.02.027.019-.012.015-.058-.004-.058-.008 0-.016.011-.016.03m-3.617.028c-.04.024-.059.047-.047.047a.29.29 0 0 0 .121-.066c.04-.04 0-.028-.074.02m10.773-.013c.008.02.278.305.29.305.034 0 0-.039-.262-.289-.02-.02-.032-.023-.028-.016m-7.129.051c-.008.008-.011.024-.011.04 0 .019.004.023.02.007.007-.012.015-.027.01-.039-.003-.012-.01-.016-.019-.008m6.59.031c0 .012.016.036.035.043.032.024.032.02.004-.023-.035-.05-.039-.05-.039-.02m-10.422.004c-.015.008-.031.02-.031.028 0 .011.012.015.027.008.016-.004.036-.012.043-.012.012 0 .02-.008.02-.016 0-.02-.008-.02-.059-.008m1.86.024c0 .011.015.023.035.027.02.008.035.02.035.031 0 .008.008.012.016.004.011-.004.02 0 .02.008 0 .012.007.02.015.02.039 0 .015-.028-.051-.067-.04-.02-.07-.031-.07-.023m1.68.008a.197.197 0 0 1-.083.05c-.03.012-.058.028-.058.036 0 .023.027.015.097-.032.086-.058.086-.058.075-.07-.004-.004-.02.004-.032.016m.7.003c0 .012.007.024.02.024.007 0 .015-.012.015-.024 0-.015-.008-.027-.016-.027-.012 0-.02.012-.02.027m-4.53.063c0 .008.015.016.034.016.02 0 .036-.008.036-.016 0-.012-.016-.02-.036-.02-.02 0-.035.008-.035.02m10.88.05c.042.044.077.075.085.071.004-.008-.031-.043-.074-.078l-.086-.066.074.074m-11.011-.035c-.004.011.011.015.042.015.028-.004.047-.011.043-.02-.011-.019-.07-.015-.085.005m4.683.027c0 .023.008.043.016.043.011 0 .02-.016.02-.035 0-.016-.009-.04-.02-.043-.008-.008-.016.008-.016.035m-6.242.004a.317.317 0 0 0 .086 0c.02-.004 0-.008-.047-.008-.05 0-.066.004-.04.008m5.282.008c-.031.011-.055.027-.055.035 0 .023.04.015.098-.02.055-.039.047-.043-.043-.015m-4.937.011c0 .012.168.02.43.016.234 0 .425-.008.425-.016 0-.007-.191-.015-.426-.015-.261 0-.43.008-.43.015m5.512.02c0 .02.008.035.02.035.008 0 .016-.012.016-.023a.06.06 0 0 0-.016-.04c-.012-.003-.02.008-.02.028m-1.425.07c-.008.012.007.02.03.02.028 0 .052-.008.056-.02.007-.008-.008-.015-.032-.015-.023 0-.047.007-.054.015m.464 0c0 .012.02.02.043.02.024 0 .043-.008.043-.02 0-.008-.02-.015-.043-.015-.023 0-.043.007-.043.015m-.234.016a.289.289 0 0 0 .082 0c.02-.004.004-.008-.043-.008-.043 0-.058.004-.039.008" fill="#64caed"/></g></svg>
