<?xml version="1.0" encoding="UTF-8"?>
<svg xmlns="http://www.w3.org/2000/svg" xmlns:xlink="http://www.w3.org/1999/xlink" width="26pt" height="9pt" viewBox="0 0 26 9" version="1.1">
<g id="surface1">
<path style=" stroke:none;fill-rule:nonzero;fill:rgb(100%,100%,100%);fill-opacity:1;" d="M 13.445312 2.898438 C 13.429688 4.148438 14.488281 4.84375 15.285156 5.261719 C 16.105469 5.6875 16.378906 5.957031 16.375 6.339844 C 16.371094 6.921875 15.722656 7.175781 15.117188 7.1875 C 14.0625 7.207031 13.449219 6.882812 12.960938 6.640625 L 12.582031 8.539062 C 13.070312 8.78125 13.976562 8.992188 14.914062 9 C 17.121094 9 18.566406 7.835938 18.574219 6.03125 C 18.582031 3.746094 15.609375 3.617188 15.628906 2.59375 C 15.636719 2.285156 15.914062 1.953125 16.523438 1.867188 C 16.824219 1.824219 17.652344 1.792969 18.59375 2.257812 L 18.964844 0.417969 C 18.457031 0.222656 17.808594 0.03125 16.996094 0.03125 C 14.917969 0.03125 13.457031 1.210938 13.445312 2.898438 Z M 22.511719 0.191406 C 22.109375 0.191406 21.769531 0.441406 21.617188 0.828125 L 18.464844 8.867188 L 20.667969 8.867188 L 21.109375 7.570312 L 23.800781 7.570312 L 24.058594 8.867188 L 26 8.867188 L 24.304688 0.191406 Z M 22.820312 2.535156 L 23.453125 5.792969 L 21.710938 5.792969 Z M 10.773438 0.191406 L 9.035156 8.867188 L 11.136719 8.867188 L 12.875 0.191406 Z M 7.664062 0.191406 L 5.480469 6.097656 L 4.59375 1.074219 C 4.488281 0.515625 4.082031 0.191406 3.625 0.191406 L 0.0507812 0.191406 L 0 0.445312 C 0.734375 0.613281 1.566406 0.890625 2.074219 1.183594 C 2.382812 1.363281 2.46875 1.519531 2.570312 1.945312 L 4.246094 8.867188 L 6.46875 8.867188 L 9.871094 0.191406 Z M 7.664062 0.191406 "/>
</g>
</svg>
