<svg width="100%" height="100%" viewBox="0 0 82 82" fill="none" xmlns="http://www.w3.org/2000/svg">
<path d="M50.8113 1H31.1887C14.5159 1 1 14.5159 1 31.1887V50.8113C1 67.4841 14.5159 81 31.1887 81H50.8113C67.4841 81 81 67.4841 81 50.8113V31.1887C81 14.5159 67.4841 1 50.8113 1Z" fill="white" stroke="#FF7A6C" stroke-width="2"/>
<path fill-rule="evenodd" clip-rule="evenodd" d="M26.8463 26.3209C26.7256 26.6394 26.6606 27.0167 26.6606 27.4484V55.6386C26.6606 56.0718 26.7256 56.4491 26.8463 56.7676L42.0674 41.5435L26.8463 26.3209ZM27.9014 57.8469C28.4524 58.0326 29.1467 57.936 29.8999 57.5088L47.8395 47.3141L43.1361 42.6107L27.9014 57.8469ZM49.201 46.5428L54.7572 43.385C56.5384 42.3722 56.5384 40.7164 54.7572 39.7051L49.1995 36.5458L44.2033 41.5435L49.201 46.5428ZM47.838 35.7729L29.8999 25.5797C29.1467 25.1511 28.4523 25.056 27.8999 25.2416L43.1361 40.4764L47.838 35.7729Z" fill="#FF7A6C"/>
</svg>
