<svg width="100%" height="100%" viewBox="0 0 82 82" fill="none" xmlns="http://www.w3.org/2000/svg">
<path d="M50.8113 1H31.1887C14.5159 1 1 14.5159 1 31.1887V50.8113C1 67.4841 14.5159 81 31.1887 81H50.8113C67.4841 81 81 67.4841 81 50.8113V31.1887C81 14.5159 67.4841 1 50.8113 1Z" fill="white" stroke="#FF7A6C" stroke-width="2"/>
<path d="M48.9961 41.1207C49.0294 38.5833 50.3924 36.1832 52.5539 34.8534C51.1894 32.9063 48.9056 31.6716 46.5297 31.5976C43.9939 31.3304 41.538 33.1131 40.246 33.1131C38.9297 33.1131 36.9403 31.6233 34.7984 31.6671C32.0075 31.7576 29.4052 33.344 28.0467 35.7847C25.1275 40.8398 27.3056 48.2678 30.1026 52.3523C31.5003 54.3538 33.1365 56.5878 35.2754 56.5093C37.369 56.4218 38.1509 55.1735 40.6792 55.1735C43.1818 55.1735 43.9154 56.5093 46.0996 56.458C48.3456 56.4218 49.7614 54.449 51.1109 52.4293C52.1161 51.0044 52.8905 49.4285 53.4037 47.7621C50.7622 46.6451 48.9992 43.9871 48.9961 41.1207Z" fill="#FF7A6C"/>
<path d="M44.873 28.9111C46.0971 27.4394 46.7009 25.5495 46.5545 23.6416C44.6828 23.8378 42.9545 24.7329 41.7138 26.1472C40.4987 27.5284 39.8677 29.385 39.987 31.2205C41.8587 31.2401 43.6987 30.3692 44.873 28.9111Z" fill="#FF7A6C"/>
</svg>
