<svg width="129" height="38" viewBox="0 0 129 38" fill="none" xmlns="http://www.w3.org/2000/svg">
<path d="M123.5 0.759023C125.685 0.759023 127.49 2.56402 127.49 4.74902V33.249C127.49 35.434 125.685 37.239 123.5 37.239H4.75C2.565 37.239 0.76 35.434 0.76 33.249V4.74902C0.76 2.56402 2.565 0.759023 4.75 0.759023H123.5ZM123.5 -0.000976562H4.75C2.09 -0.000976562 0 2.18402 0 4.74902V33.249C0 35.909 2.09 37.999 4.75 37.999H123.5C126.16 37.999 128.25 35.909 128.25 33.249V4.74902C128.25 2.18402 126.16 -0.000976562 123.5 -0.000976562Z" fill="white"/>
<path d="M30.682 18.5769C30.682 15.9169 32.867 14.6819 32.962 14.5869C31.727 12.7819 29.827 12.5919 29.162 12.4969C27.547 12.3069 26.027 13.4469 25.172 13.4469C24.317 13.4469 23.082 12.4969 21.752 12.4969C20.042 12.4969 18.427 13.5419 17.477 15.0619C15.672 18.1969 17.002 22.9469 18.807 25.5119C19.662 26.7469 20.707 28.1719 22.037 28.1719C23.367 28.0769 23.842 27.3169 25.457 27.3169C27.072 27.3169 27.452 28.1719 28.877 28.1719C30.302 28.1719 31.157 26.9369 32.012 25.6069C33.057 24.1819 33.437 22.7569 33.437 22.6619C33.437 22.7569 30.682 21.7119 30.682 18.5769Z" fill="white"/>
<path d="M28.0216 10.8826C28.6866 10.0276 29.2566 8.79262 29.0666 7.55762C28.0216 7.55762 26.7866 8.22262 26.0266 9.17262C25.3616 9.93262 24.7916 11.1676 24.9816 12.4026C26.1216 12.4026 27.3566 11.7376 28.0216 10.8826Z" fill="white"/>
<path d="M47.3073 25.0373H42.8423L41.7973 28.2673H39.8973L44.1723 16.4873H46.1673L50.4423 28.2673H48.5423L47.3073 25.0373ZM43.3173 23.6123H46.9273L45.2173 18.4823H45.0273L43.3173 23.6123Z" fill="white"/>
<path d="M59.5632 23.9898C59.5632 26.6498 58.1382 28.3598 55.9532 28.3598C54.7182 28.3598 53.7682 27.7898 53.2932 26.8398V31.1148H51.4882V19.7148H53.1982V21.1398C53.6732 20.1898 54.7182 19.6198 55.9532 19.6198C58.1382 19.5248 59.5632 21.3298 59.5632 23.9898ZM57.7581 23.9898C57.7581 22.2798 56.9032 21.1398 55.4782 21.1398C54.1482 21.1398 53.1982 22.2798 53.1982 23.9898C53.1982 25.6998 54.1482 26.8398 55.4782 26.8398C56.8082 26.8398 57.7581 25.6998 57.7581 23.9898Z" fill="white"/>
<path d="M68.9675 23.9898C68.9675 26.6498 67.5425 28.3598 65.3575 28.3598C64.1225 28.3598 63.1725 27.7898 62.6975 26.8398V31.1148H60.8925V19.7148H62.6025V21.1398C63.0775 20.1898 64.1225 19.6198 65.3575 19.6198C67.5425 19.5248 68.9675 21.3298 68.9675 23.9898ZM67.1624 23.9898C67.1624 22.2798 66.3075 21.1398 64.8825 21.1398C63.5525 21.1398 62.6025 22.2798 62.6025 23.9898C62.6025 25.6998 63.5525 26.8398 64.8825 26.8398C66.3075 26.8398 67.1624 25.6998 67.1624 23.9898Z" fill="white"/>
<path d="M75.2373 24.9409C75.3323 26.0809 76.4723 26.8409 78.0873 26.8409C79.6073 26.8409 80.6523 26.0809 80.6523 25.0359C80.6523 24.0859 79.9873 23.6109 78.4673 23.2309L76.9473 22.8509C74.7623 22.2809 73.8123 21.3309 73.8123 19.7159C73.8123 17.7209 75.6173 16.2959 78.0873 16.2959C80.5573 16.2959 82.2673 17.7209 82.3623 19.7159H80.5573C80.4623 18.5759 79.5123 17.8159 78.0873 17.8159C76.6623 17.8159 75.7123 18.5759 75.7123 19.6209C75.7123 20.4759 76.3773 20.9509 77.8973 21.3309L79.2273 21.6159C81.6023 22.1859 82.6473 23.1359 82.6473 24.8459C82.6473 27.0309 80.8423 28.4559 78.0873 28.4559C75.4273 28.4559 73.7173 27.1259 73.6223 24.9409H75.2373Z" fill="white"/>
<path d="M86.3519 17.6279V19.6229H87.9669V21.0479H86.3519V25.7979C86.3519 26.5579 86.6369 26.8429 87.3969 26.8429C87.5869 26.8429 87.8719 26.8429 87.9669 26.8429V28.2679C87.7769 28.3629 87.3969 28.3629 87.0169 28.3629C85.3069 28.3629 84.6419 27.6979 84.6419 26.0829V21.1429H83.4069V19.7179H84.6419V17.7229H86.3519V17.6279Z" fill="white"/>
<path d="M88.9175 23.9901C88.9175 21.3301 90.5325 19.6201 93.0025 19.6201C95.4725 19.6201 97.0875 21.3301 97.0875 23.9901C97.0875 26.7451 95.4725 28.3601 93.0025 28.3601C90.4375 28.3601 88.9175 26.6501 88.9175 23.9901ZM95.2825 23.9901C95.2825 22.0901 94.4275 21.0451 93.0025 21.0451C91.5775 21.0451 90.7225 22.1851 90.7225 23.9901C90.7225 25.8901 91.5775 26.9351 93.0025 26.9351C94.4275 26.9351 95.2825 25.7951 95.2825 23.9901Z" fill="white"/>
<path d="M98.5132 19.6201H100.223V21.1401C100.508 20.1901 101.268 19.6201 102.313 19.6201C102.598 19.6201 102.788 19.6201 102.883 19.7151V21.3301C102.788 21.2351 102.408 21.2351 102.123 21.2351C100.983 21.2351 100.318 21.9951 100.318 23.2301V28.3601H98.5132V19.6201Z" fill="white"/>
<path d="M111.053 25.7014C110.863 27.2214 109.248 28.3614 107.348 28.3614C104.878 28.3614 103.263 26.6514 103.263 23.9914C103.263 21.3314 104.783 19.5264 107.253 19.5264C109.628 19.5264 111.148 21.1414 111.148 23.8014V24.3714H105.068V24.4664C105.068 25.8914 106.018 26.9364 107.348 26.9364C108.298 26.9364 109.058 26.4614 109.343 25.7014H111.053ZM105.068 23.1364H109.343C109.343 21.8064 108.488 20.9514 107.253 20.9514C106.018 20.9514 105.163 21.9014 105.068 23.1364Z" fill="white"/>
<path d="M43.0319 7.55371C44.7419 7.55371 45.6919 8.59871 45.6919 10.4037C45.6919 12.2087 44.7419 13.2537 43.0319 13.2537H40.9419V7.55371H43.0319ZM41.8919 12.4937H42.9369C44.0769 12.4937 44.8369 11.7337 44.8369 10.4987C44.8369 9.26371 44.1719 8.50371 42.9369 8.50371H41.8919V12.4937Z" fill="white"/>
<path d="M46.7372 11.0707C46.7372 9.64574 47.4972 8.88574 48.7322 8.88574C49.9672 8.88574 50.7272 9.74074 50.7272 11.0707C50.7272 12.4957 49.9672 13.2557 48.7322 13.2557C47.4972 13.3507 46.7372 12.4957 46.7372 11.0707ZM49.8722 11.0707C49.8722 10.1207 49.4922 9.64574 48.7322 9.64574C47.9722 9.64574 47.5922 10.2157 47.5922 11.0707C47.5922 12.0207 47.9722 12.5907 48.7322 12.5907C49.4922 12.5907 49.8722 12.0207 49.8722 11.0707Z" fill="white"/>
<path d="M56.1418 13.2545H55.2868L54.4318 10.1195H54.3368L53.4818 13.2545H52.6268L51.4868 8.97949H52.3418L53.1018 12.2095H53.1968L54.0518 8.97949H54.9068L55.7618 12.2095H55.8568L56.6168 8.97949H57.4718L56.1418 13.2545Z" fill="white"/>
<path d="M58.327 8.98074H59.182V9.64574H59.277C59.467 9.17074 59.942 8.88574 60.512 8.88574C61.462 8.88574 62.032 9.45574 62.032 10.5007V13.2557H61.177V10.6907C61.177 10.0257 60.892 9.64574 60.227 9.64574C59.562 9.64574 59.182 10.0257 59.182 10.6907V13.1607H58.327V8.98074Z" fill="white"/>
<path d="M63.2671 7.27246H64.1221V13.2575H63.2671V7.27246Z" fill="white"/>
<path d="M65.2626 11.0707C65.2626 9.64574 66.0226 8.88574 67.2576 8.88574C68.4926 8.88574 69.2526 9.74074 69.2526 11.0707C69.2526 12.4957 68.4926 13.2557 67.2576 13.2557C66.0226 13.3507 65.2626 12.4957 65.2626 11.0707ZM68.4926 11.0707C68.4926 10.1207 68.1126 9.64574 67.3526 9.64574C66.5926 9.64574 66.2126 10.2157 66.2126 11.0707C66.2126 12.0207 66.5926 12.5907 67.3526 12.5907C68.0176 12.5907 68.4926 12.0207 68.4926 11.0707Z" fill="white"/>
<path d="M70.2019 12.0207C70.2019 11.2607 70.7719 10.7857 71.8169 10.7857L72.9569 10.6907V10.3107C72.9569 9.83574 72.6719 9.64574 72.1019 9.64574C71.6269 9.64574 71.3419 9.83574 71.2469 10.1207H70.3919C70.4869 9.36074 71.1519 8.88574 72.1019 8.88574C73.1469 8.88574 73.8119 9.45574 73.8119 10.3107V13.2557H72.9569V12.6857H72.8619C72.5769 13.1607 72.1019 13.3507 71.5319 13.3507C70.7719 13.3507 70.2019 12.7807 70.2019 12.0207ZM72.9569 11.6407V11.2607L71.9119 11.3557C71.3419 11.3557 71.0569 11.6407 71.0569 11.9257C71.0569 12.3057 71.4369 12.4957 71.8169 12.4957C72.4819 12.5907 72.9569 12.2107 72.9569 11.6407Z" fill="white"/>
<path d="M74.952 11.0725C74.952 9.74246 75.617 8.88746 76.757 8.88746C77.327 8.88746 77.802 9.17246 78.087 9.64746H78.182V7.27246H79.037V13.2575H78.182V12.5925H78.087C77.802 13.0675 77.327 13.3525 76.757 13.3525C75.617 13.3525 74.952 12.4975 74.952 11.0725ZM75.807 11.0725C75.807 12.0225 76.282 12.4975 76.947 12.4975C77.612 12.4975 78.087 11.9275 78.087 11.0725C78.087 10.2175 77.612 9.64746 76.947 9.64746C76.187 9.64746 75.807 10.2175 75.807 11.0725Z" fill="white"/>
<path d="M82.3617 11.0707C82.3617 9.64574 83.1217 8.88574 84.3567 8.88574C85.5917 8.88574 86.3517 9.74074 86.3517 11.0707C86.3517 12.4957 85.5917 13.2557 84.3567 13.2557C83.1217 13.3507 82.3617 12.4957 82.3617 11.0707ZM85.5917 11.0707C85.5917 10.1207 85.2117 9.64574 84.4517 9.64574C83.6917 9.64574 83.3117 10.2157 83.3117 11.0707C83.3117 12.0207 83.6917 12.5907 84.4517 12.5907C85.1167 12.5907 85.5917 12.0207 85.5917 11.0707Z" fill="white"/>
<path d="M87.587 8.98074H88.4421V9.64574H88.537C88.727 9.17074 89.2021 8.88574 89.7721 8.88574C90.7221 8.88574 91.2921 9.45574 91.2921 10.5007V13.2557H90.437V10.6907C90.437 10.0257 90.152 9.64574 89.487 9.64574C88.822 9.64574 88.4421 10.0257 88.4421 10.6907V13.1607H87.587V8.98074Z" fill="white"/>
<path d="M95.947 7.93652V8.98152H96.897V9.74152H95.947V11.9265C95.947 12.4015 96.137 12.5915 96.517 12.5915C96.612 12.5915 96.707 12.5915 96.802 12.5915V13.2565C96.707 13.2565 96.517 13.2565 96.327 13.2565C95.377 13.2565 94.997 12.9715 94.997 12.1165V9.74152H94.427V9.07652H95.092V7.93652H95.947Z" fill="white"/>
<path d="M98.037 7.27246H98.892V9.64746H98.987C99.177 9.17246 99.652 8.88746 100.317 8.88746C101.267 8.88746 101.837 9.45746 101.837 10.5025V13.2575H100.982V10.6925C100.982 10.0275 100.697 9.64746 100.032 9.64746C99.367 9.64746 98.987 10.1225 98.987 10.6925V13.1625H98.132V7.27246H98.037Z" fill="white"/>
<path d="M106.682 12.1157C106.492 12.8757 105.827 13.3507 104.782 13.3507C103.547 13.3507 102.787 12.4957 102.787 11.1657C102.787 9.83574 103.547 8.88574 104.782 8.88574C106.017 8.88574 106.682 9.74074 106.682 11.0707V11.3557H103.642C103.642 12.1157 104.117 12.5907 104.782 12.5907C105.257 12.5907 105.637 12.4007 105.827 12.1157H106.682ZM103.642 10.6907H105.827C105.827 10.0257 105.352 9.55074 104.782 9.55074C104.117 9.64574 103.737 10.0257 103.642 10.6907Z" fill="white"/>
</svg>
