<svg width="100%" height="100%" viewBox="0 0 137 49" fill="none" xmlns="http://www.w3.org/2000/svg">
<path d="M6.81333 46.4576C4.49578 45.4408 2.78612 44.2232 1.697 42.8047C0.544559 41.4616 0 40.3067 0 39.29C0 38.813 0.139306 38.4741 0.481239 38.2104C0.759851 37.9343 1.08912 37.8088 1.50704 37.8088H7.09194C7.43387 37.8088 7.7758 38.0096 8.04175 38.3485C8.24438 38.5494 8.78894 38.9511 9.61211 39.6289C10.3593 40.3067 11.3218 40.8465 12.3349 41.1854C13.3607 41.5871 14.4498 41.788 15.6782 41.788C17.5146 41.788 18.9456 41.449 20.1107 40.7084C21.2758 40.0306 21.8204 39.0138 21.8204 37.7334C21.8204 36.8548 21.5418 36.1141 21.0732 35.4991C20.5286 34.9593 19.5788 34.4195 18.2744 33.9425C16.9067 33.4655 14.8677 33.0011 12.2083 32.386C8.32036 31.5701 5.52158 30.3525 3.68528 28.6704C1.83631 26.9883 0.886492 24.8293 0.886492 22.0551C0.886492 20.235 1.43105 18.5404 2.52017 16.9211C3.60929 15.3646 5.24297 14.0089 7.43387 13.0047C9.54879 11.9879 12.1449 11.5234 15.1337 11.5234C18.1984 11.5234 20.8579 12.0004 23.1121 12.9419C25.3663 13.9587 27.0633 15.101 28.2284 16.4566C29.3935 17.8123 29.9381 19.0299 29.9381 20.0342C29.9381 20.4358 29.7988 20.7748 29.5329 21.0509C29.1909 21.3898 28.849 21.5279 28.4437 21.5279H23.3274C22.8462 21.5279 22.4409 21.3271 22.1623 20.9882C21.8204 20.7873 21.3391 20.3103 20.6679 19.7078C19.9207 19.1053 19.1736 18.6283 18.2871 18.2893C17.4006 17.9504 16.3748 17.7496 15.1464 17.7496C13.4367 17.7496 12.1449 18.0885 11.2585 18.8291C10.372 19.5697 9.89072 20.5237 9.89072 21.666C9.89072 22.4819 10.0933 23.1472 10.5746 23.6995C10.9798 24.2393 11.8663 24.7163 13.1707 25.1808C14.4625 25.6578 16.4381 26.1975 19.0976 26.662C27.2786 28.2185 31.3692 31.796 31.3692 37.269C31.3692 40.4448 30.0014 43.0809 27.2153 45.0391C24.4165 46.9973 20.4653 48.0141 15.4883 48.0141C12.0056 48.0141 9.14353 47.4743 6.81333 46.4576Z" fill="#583E81"/>
<path d="M36.9695 46.9031C36.6291 46.5686 36.4905 46.2341 36.4905 45.7633V1.59812C36.4905 1.12736 36.6291 0.730925 36.9695 0.396434C37.3098 0.123886 37.6502 0 38.1292 0H43.827C44.306 0 44.7094 0.136274 45.0497 0.396434C45.327 0.730925 45.4531 1.12736 45.4531 1.59812V45.7633C45.4531 46.2341 45.3144 46.5686 45.0497 46.9031C44.7094 47.2376 44.306 47.3738 43.827 47.3738H38.1292C37.6502 47.3614 37.3098 47.2252 36.9695 46.9031Z" fill="#583E81"/>
<path d="M52.3293 46.886C51.9923 46.5479 51.855 46.2099 51.855 45.7341V15.0594C51.855 14.5837 51.9923 14.183 52.3293 13.845C52.6664 13.5695 53.0034 13.4443 53.4777 13.4443H59.1948C59.6692 13.4443 60.0062 13.5821 60.3433 13.9201C60.6803 14.2582 60.8176 14.5962 60.8176 15.072V45.7466C60.8176 46.2224 60.6803 46.5604 60.3433 46.8985C60.0062 47.2365 59.6692 47.3742 59.1948 47.3742H53.4777C52.9909 47.3492 52.6664 47.2115 52.3293 46.886Z" fill="#583E81"/>
<path d="M54.0239 6.34114C55.7572 7.9589 58.161 8.96262 60.8179 8.96262V0H51.2152C51.2025 2.47978 52.2779 4.71157 54.0239 6.34114Z" fill="#583E81"/>
<path d="M70.7658 43.9343C67.7711 41.2107 66.2043 37.5012 66.0021 32.7195L65.939 30.0698L66.0021 27.4202C66.2043 22.6385 67.7711 18.929 70.7658 16.2054C73.6972 13.4818 77.7027 12.1631 82.6685 12.1631C86.2697 12.1631 89.2643 12.7546 91.7914 14.024C94.2427 15.2811 96.0749 16.7476 97.3006 18.5346C98.463 20.3216 99.1327 22.0469 99.2085 23.7107C99.2717 24.179 99.1454 24.5117 98.8042 24.8445C98.463 25.1772 98.0587 25.3128 97.5786 25.3128H91.5261C91.0459 25.3128 90.6416 25.1772 90.4394 24.98C90.2373 24.7828 89.9593 24.4501 89.7571 23.9202C89.0748 22.2564 88.1903 20.9994 87.1036 20.2723C85.9411 19.5452 84.5133 19.1385 82.8201 19.1385C80.5078 19.1385 78.7388 19.8656 77.45 21.2582C76.1612 22.6508 75.403 24.8445 75.3399 27.7652L75.2767 30.2177L75.3399 32.4114C75.6179 38.179 78.1323 41.0382 82.8201 41.0382C84.5891 41.0382 86.017 40.6438 87.1036 39.9044C88.1903 39.1773 89.0748 37.9818 89.7571 36.2565C89.9593 35.7882 90.1614 35.3938 90.4394 35.1966C90.6416 34.9994 91.0459 34.8639 91.5261 34.8639H97.5786C98.0587 34.8639 98.463 34.9994 98.8042 35.3322C99.1454 35.6649 99.2844 35.9977 99.2085 36.466C99.1454 37.9942 98.463 39.6456 97.3006 41.4449C96.1381 43.2318 94.3059 44.834 91.8546 46.091C89.4033 47.3481 86.3455 48.0136 82.6685 48.0136C77.7154 47.9766 73.6972 46.6456 70.7658 43.9343Z" fill="#583E81"/>
<path d="M108.48 43.6974C105.521 40.7862 103.972 36.7331 103.773 31.4L103.71 29.706C103.71 24.0969 105.184 19.6422 108.143 16.3922C111.04 13.1547 115.136 11.5234 120.318 11.5234C125.624 11.5234 129.795 13.1422 132.692 16.3922C135.589 19.6297 137 23.9588 137 29.3672V30.7851C137 31.262 136.863 31.6008 136.525 31.9396C136.188 32.2784 135.789 32.4164 135.314 32.4164H112.975V32.956C113.038 35.4531 113.787 37.5487 115.061 39.1674C116.334 40.8615 118.082 41.6645 120.305 41.6645C122.865 41.6645 124.95 40.6481 126.561 38.5526C126.961 38.0757 127.298 37.7369 127.497 37.6114C127.697 37.5487 128.097 37.4734 128.646 37.4734H134.565C134.965 37.4734 135.302 37.6114 135.639 37.8122C135.914 38.013 136.038 38.3518 136.038 38.7533C136.038 39.8325 135.439 41.1124 134.153 42.5429C132.879 44.0236 130.994 45.3161 128.634 46.3953C126.286 47.4744 123.527 48.014 120.368 48.014C115.335 48.0266 111.365 46.6086 108.48 43.6974ZM127.71 26.5438C127.71 23.9086 127.035 21.7503 125.762 20.1191C124.413 18.5631 122.603 17.76 120.318 17.76C118.033 17.76 116.222 18.5756 114.936 20.1191C113.662 21.7378 112.988 23.9086 112.988 26.5438V26.6818H127.71V26.5438Z" fill="#583E81"/>
</svg>
