<svg width="100%" height="100%" viewBox="0 0 46 46" fill="none" xmlns="http://www.w3.org/2000/svg">
<path d="M30 1H16C7.71573 1 1 7.71573 1 16V30C1 38.2843 7.71573 45 16 45H30C38.2843 45 45 38.2843 45 30V16C45 7.71573 38.2843 1 30 1Z" fill="white" stroke="#6D39CE" stroke-width="2"/>
<path d="M29 22.5H17C16.7239 22.5 16.5 22.7239 16.5 23C16.5 23.2761 16.7239 23.5 17 23.5H29C29.2761 23.5 29.5 23.2761 29.5 23C29.5 22.7239 29.2761 22.5 29 22.5Z" fill="#6D39CE" stroke="#6D39CE"/>
<path d="M26 17.5H17C16.7239 17.5 16.5 17.7239 16.5 18C16.5 18.2761 16.7239 18.5 17 18.5H26C26.2761 18.5 26.5 18.2761 26.5 18C26.5 17.7239 26.2761 17.5 26 17.5Z" fill="#6D39CE" stroke="#6D39CE"/>
<path d="M29 27.5H21C20.7239 27.5 20.5 27.7239 20.5 28C20.5 28.2761 20.7239 28.5 21 28.5H29C29.2761 28.5 29.5 28.2761 29.5 28C29.5 27.7239 29.2761 27.5 29 27.5Z" fill="#6D39CE" stroke="#6D39CE"/>
</svg>
