<svg width="128" height="39" viewBox="0 0 128 39" fill="none" xmlns="http://www.w3.org/2000/svg">
<path d="M123.259 1.65989C125.44 1.65989 127.241 3.46137 127.241 5.64211V34.0865C127.241 36.2673 125.44 38.0688 123.259 38.0688H4.74074C2.56 38.0688 0.758519 36.2673 0.758519 34.0865V5.64211C0.758519 3.46137 2.56 1.65989 4.74074 1.65989H123.259ZM123.259 0.901367H4.74074C2.08593 0.901367 0 3.08211 0 5.64211V34.0865C0 36.7414 2.08593 38.8273 4.74074 38.8273H123.259C125.914 38.8273 128 36.7414 128 34.0865V5.64211C128 3.08211 125.914 0.901367 123.259 0.901367Z" fill="white"/>
<path d="M44.9421 10.5693C44.9421 11.3278 44.7524 11.9915 44.2784 12.4656C43.7095 13.0345 43.0458 13.3189 42.1924 13.3189C41.3391 13.3189 40.6754 13.0345 40.1065 12.4656C39.5376 11.8967 39.2532 11.233 39.2532 10.3797C39.2532 9.52636 39.5376 8.86265 40.1065 8.29376C40.6754 7.72487 41.3391 7.44043 42.1924 7.44043C42.5717 7.44043 42.951 7.53524 43.3302 7.72487C43.7095 7.9145 43.9939 8.10413 44.1835 8.38858L43.7095 8.86265C43.3302 8.38858 42.8561 8.19895 42.1924 8.19895C41.6235 8.19895 41.0547 8.38858 40.6754 8.86265C40.2013 9.24191 40.0117 9.8108 40.0117 10.4745C40.0117 11.1382 40.2013 11.7071 40.6754 12.0864C41.1495 12.4656 41.6235 12.7501 42.1924 12.7501C42.8561 12.7501 43.3302 12.5604 43.8043 12.0864C44.0887 11.8019 44.2784 11.4227 44.2784 10.9486H42.1924V10.1901H44.9421C44.9421 10.2849 44.9421 10.4745 44.9421 10.5693Z" fill="white" stroke="white" stroke-width="0.114055" stroke-miterlimit="10"/>
<path d="M49.3039 8.19788H46.7439V9.99937H49.1142V10.6631H46.7439V12.4645H49.3039V13.2231H45.9854V7.53418H49.3039V8.19788Z" fill="white" stroke="white" stroke-width="0.114055" stroke-miterlimit="10"/>
<path d="M52.4324 13.2231H51.6739V8.19788H50.062V7.53418H54.0442V8.19788H52.4324V13.2231Z" fill="white" stroke="white" stroke-width="0.114055" stroke-miterlimit="10"/>
<path d="M56.7941 13.2231V7.53418H57.5526V13.2231H56.7941Z" fill="white" stroke="white" stroke-width="0.114055" stroke-miterlimit="10"/>
<path d="M60.7764 13.2231H60.0179V8.19788H58.406V7.53418H62.2934V8.19788H60.6816V13.2231H60.7764Z" fill="white" stroke="white" stroke-width="0.114055" stroke-miterlimit="10"/>
<path d="M69.7836 12.4656C69.2147 13.0345 68.551 13.3189 67.6977 13.3189C66.8443 13.3189 66.1806 13.0345 65.6118 12.4656C65.0429 11.8967 64.7584 11.233 64.7584 10.3797C64.7584 9.52636 65.0429 8.86265 65.6118 8.29376C66.1806 7.72487 66.8443 7.44043 67.6977 7.44043C68.551 7.44043 69.2147 7.72487 69.7836 8.29376C70.3525 8.86265 70.6369 9.52636 70.6369 10.3797C70.6369 11.233 70.3525 11.8967 69.7836 12.4656ZM66.1806 11.9915C66.5599 12.3708 67.1288 12.6552 67.6977 12.6552C68.2666 12.6552 68.8355 12.4656 69.2147 11.9915C69.594 11.6123 69.8784 11.0434 69.8784 10.3797C69.8784 9.71599 69.6888 9.1471 69.2147 8.76784C68.8355 8.38858 68.2666 8.10413 67.6977 8.10413C67.1288 8.10413 66.5599 8.29376 66.1806 8.76784C65.8014 9.1471 65.5169 9.71599 65.5169 10.3797C65.5169 11.0434 65.7066 11.6123 66.1806 11.9915Z" fill="white" stroke="white" stroke-width="0.114055" stroke-miterlimit="10"/>
<path d="M71.6803 13.2231V7.53418H72.5336L75.2833 11.9905V10.8527V7.53418H76.0418V13.2231H75.2833L72.344 8.57714V9.71492V13.2231H71.6803Z" fill="white" stroke="white" stroke-width="0.114055" stroke-miterlimit="10"/>
<path d="M64.569 21.5686C62.2934 21.5686 60.492 23.2753 60.492 25.6456C60.492 27.9212 62.2934 29.7227 64.569 29.7227C66.8445 29.7227 68.646 28.016 68.646 25.6456C68.646 23.1805 66.8445 21.5686 64.569 21.5686ZM64.569 28.016C63.3364 28.016 62.2934 26.973 62.2934 25.5508C62.2934 24.1286 63.3364 23.0856 64.569 23.0856C65.8016 23.0856 66.8445 24.0338 66.8445 25.5508C66.8445 26.973 65.8016 28.016 64.569 28.016ZM55.7512 21.5686C53.4757 21.5686 51.6742 23.2753 51.6742 25.6456C51.6742 27.9212 53.4757 29.7227 55.7512 29.7227C58.0268 29.7227 59.8283 28.016 59.8283 25.6456C59.8283 23.1805 58.0268 21.5686 55.7512 21.5686ZM55.7512 28.016C54.5186 28.016 53.4757 26.973 53.4757 25.5508C53.4757 24.1286 54.5186 23.0856 55.7512 23.0856C56.9838 23.0856 58.0268 24.0338 58.0268 25.5508C58.0268 26.973 56.9838 28.016 55.7512 28.016ZM45.2268 22.8012V24.5079H49.3038C49.209 25.456 48.8297 26.2145 48.3557 26.6886C47.7868 27.2575 46.8386 27.9212 45.2268 27.9212C42.6668 27.9212 40.7705 25.9301 40.7705 23.3701C40.7705 20.8101 42.7616 18.819 45.2268 18.819C46.5542 18.819 47.5971 19.3879 48.3557 20.0516L49.5883 18.819C48.5453 17.8708 47.2179 17.1123 45.3216 17.1123C41.9083 17.1123 38.969 19.9567 38.969 23.3701C38.969 26.7834 41.9083 29.6279 45.3216 29.6279C47.2179 29.6279 48.5453 29.059 49.6831 27.8264C50.8208 26.6886 51.2001 25.0767 51.2001 23.8442C51.2001 23.4649 51.2001 23.0856 51.1053 22.8012H45.2268ZM88.2727 24.1286C87.8934 23.1805 86.9453 21.5686 84.8594 21.5686C82.7734 21.5686 81.0668 23.1805 81.0668 25.6456C81.0668 27.9212 82.7734 29.7227 85.049 29.7227C86.8505 29.7227 87.9882 28.5849 88.3675 27.9212L87.0401 26.973C86.566 27.6367 85.9971 28.1108 85.049 28.1108C84.1008 28.1108 83.532 27.7316 83.0579 26.8782L88.4623 24.6027L88.2727 24.1286ZM82.7734 25.456C82.7734 23.939 84.006 23.0856 84.8594 23.0856C85.5231 23.0856 86.1868 23.4649 86.3764 23.939L82.7734 25.456ZM78.3171 29.3434H80.1186V17.4916H78.3171V29.3434ZM75.4727 22.4219C74.9986 21.9479 74.2401 21.4738 73.292 21.4738C71.3008 21.4738 69.4045 23.2753 69.4045 25.5508C69.4045 27.8264 71.206 29.533 73.292 29.533C74.2401 29.533 74.9986 29.059 75.3779 28.5849H75.4727V29.1538C75.4727 30.6708 74.6194 31.5242 73.292 31.5242C72.249 31.5242 71.4905 30.7656 71.3008 30.1019L69.7838 30.7656C70.2579 31.8086 71.3957 33.136 73.3868 33.136C75.4727 33.136 77.1794 31.9034 77.1794 28.9642V21.7582H75.4727V22.4219ZM73.3868 28.016C72.1542 28.016 71.1112 26.973 71.1112 25.5508C71.1112 24.1286 72.1542 23.0856 73.3868 23.0856C74.6194 23.0856 75.5675 24.1286 75.5675 25.5508C75.5675 26.973 74.6194 28.016 73.3868 28.016ZM96.5216 17.4916H92.2549V29.3434H94.0564V24.8871H96.5216C98.5127 24.8871 100.409 23.4649 100.409 21.1893C100.409 18.9138 98.5127 17.4916 96.5216 17.4916ZM96.6164 23.1805H94.0564V19.1034H96.6164C97.9438 19.1034 98.7023 20.2412 98.7023 21.0945C98.6075 22.1375 97.849 23.1805 96.6164 23.1805ZM107.52 21.4738C106.193 21.4738 104.865 22.0427 104.391 23.2753L106.003 23.939C106.382 23.2753 106.951 23.0856 107.615 23.0856C108.563 23.0856 109.416 23.6545 109.511 24.6027V24.6975C109.227 24.5079 108.468 24.2234 107.71 24.2234C106.003 24.2234 104.296 25.1716 104.296 26.8782C104.296 28.4901 105.719 29.533 107.236 29.533C108.468 29.533 109.037 28.9642 109.511 28.3953H109.606V29.3434H111.313V24.7923C111.123 22.7064 109.511 21.4738 107.52 21.4738ZM107.33 28.016C106.762 28.016 105.908 27.7316 105.908 26.973C105.908 26.0249 106.951 25.7405 107.805 25.7405C108.563 25.7405 108.942 25.9301 109.416 26.1197C109.227 27.2575 108.279 28.016 107.33 28.016ZM117.286 21.7582L115.295 26.8782H115.2L113.114 21.7582H111.218L114.347 28.9642L112.545 32.9464H114.347L119.182 21.7582H117.286ZM101.357 29.3434H103.159V17.4916H101.357V29.3434Z" fill="white"/>
<path fill-rule="evenodd" clip-rule="evenodd" d="M10.5207 30.6943L20.0914 21.0662L23.4658 24.4573L12.0866 30.8226C11.6534 31.0631 11.1248 31.0591 10.6955 30.8106C10.6955 30.8146 10.5207 30.6943 10.5207 30.6943ZM19.1256 20.0962L10 29.2754V10.9211L19.1256 20.0962ZM24.8291 16.3043L29.2886 18.7975C29.7258 19.042 30 19.503 30 20.004C30 20.5051 29.7297 20.962 29.2886 21.2105L24.7059 23.7679L21.0572 20.0962L24.8291 16.3043ZM10.4173 9.39788C10.5008 9.31771 10.5922 9.24957 10.6916 9.18944C11.1208 8.94093 11.6534 8.93692 12.0827 9.17742L23.5851 15.6068L20.0874 19.1222C20.0914 19.1262 10.4173 9.39788 10.4173 9.39788Z" fill="white"/>
</svg>
