<svg width="100%" height="100%" viewBox="0 0 275 249" fill="none" xmlns="http://www.w3.org/2000/svg">
<path opacity="0.2" d="M124.086 89.9254L70.1505 122.019C69.5539 122.374 68.8214 122.374 68.23 122.019L37.1329 103.615C35.8507 102.855 35.8455 100.948 37.1224 100.183L91.6966 67.5232C92.3035 67.1569 93.0572 67.1676 93.6589 67.5393L124.112 86.5041C125.368 87.2959 125.352 89.1707 124.086 89.9254Z" fill="black"/>
<path d="M41.376 93.9223C41.376 98.9548 43.1239 102.456 45.9289 104.035L49.2625 105.91C47.1118 104.089 45.8138 100.889 45.8138 96.5623C45.8138 86.6921 52.5438 74.683 60.8547 69.7482C62.4455 68.7997 63.9792 68.1211 65.4128 67.7439L68.6104 66.9034L66.8939 65.9391C64.1883 64.4198 60.4884 64.6891 56.4116 67.1136C48.1061 72.0431 41.376 84.0473 41.376 93.9223Z" fill="#8E5FFF"/>
<path d="M45.8145 96.5621C45.8145 100.889 47.1125 104.089 49.2631 105.91C49.2686 105.91 55.3132 109.304 55.3132 109.304C53.7328 108.388 52.4921 106.852 51.7229 104.767C51.1472 103.222 50.8386 101.368 50.8386 99.245C50.8386 96.7938 51.2519 94.2191 52.0004 91.6544C53.4707 86.6114 56.2291 81.606 59.6879 77.6895C61.5775 75.5507 63.6712 73.7408 65.8797 72.4259C67.5173 71.4561 69.0927 70.8259 70.5681 70.5296C72.7663 70.0823 74.7394 70.3517 76.3616 71.2569L68.6162 66.9092L65.4185 67.7496C63.9849 68.1321 62.4512 68.8055 60.8604 69.7539C52.5445 74.6836 45.8145 86.6867 45.8145 96.5621Z" fill="#8E5FFF"/>
<path d="M65.8741 83.675C62.797 85.5069 60.3057 89.9517 60.3057 93.6094C60.3057 97.2683 62.797 98.7501 65.8741 96.9183C68.9511 95.0912 71.4424 90.6411 71.4424 86.9886C71.4424 83.3303 68.9511 81.8485 65.8741 83.675Z" fill="#262C2A"/>
<path d="M88.5249 69.102C88.5198 69.2316 88.5146 69.3551 88.5146 69.4847C88.5146 71.6718 89.2575 73.2021 90.4614 73.9239L93.0151 75.4649L96.4796 77.5549C95.4544 76.8652 94.7945 75.5564 94.6796 73.7409C94.6693 73.563 94.6636 73.3744 94.6636 73.1859C94.6636 72.6202 94.7105 72.0438 94.8047 71.4512C94.915 70.7665 95.0825 70.0718 95.3127 69.382C95.8361 67.7767 96.6424 66.182 97.647 64.792C97.9241 64.4149 98.2172 64.0486 98.5155 63.6983C99.3738 62.7071 100.337 61.8666 101.347 61.2686C101.525 61.1662 101.698 61.0692 101.865 60.983C103.461 60.1803 104.9 60.1372 105.983 60.7352L102.671 58.7365C101.928 58.3971 101.027 58.3378 100.044 58.6018L91.7174 60.7998C89.8803 63.2243 88.6295 66.322 88.5249 69.102Z" fill="#8E5FFF"/>
<path d="M91.7168 60.7986L100.043 58.6006C101.027 58.3366 101.927 58.3958 102.67 58.7352L99.9434 57.0868C98.7297 56.3594 97.0549 56.4564 95.2024 57.5609C93.9202 58.3258 92.727 59.4571 91.7168 60.7986Z" fill="#8E5FFF"/>
<path d="M94.6789 73.7405C94.7886 75.5565 95.4531 76.8653 96.4788 77.555L96.6097 77.6302C97.8188 78.3631 99.493 78.2609 101.351 77.1616C105.046 74.9639 108.04 69.6301 108.04 65.2392C108.04 63.0519 107.297 61.5164 106.093 60.7998L105.988 60.7406C104.905 60.1425 103.466 60.1856 101.87 60.9884C101.702 61.0746 101.53 61.1716 101.351 61.2739C100.342 61.8773 99.3782 62.7124 98.5199 63.7037C98.2222 64.0539 97.9285 64.4202 97.6514 64.7974C96.6462 66.1873 95.8406 67.7767 95.3171 69.3877C95.092 70.0825 94.9246 70.7773 94.8097 71.4563C94.7154 72.0434 94.668 72.6253 94.668 73.191C94.6629 73.3745 94.668 73.5631 94.6789 73.7405ZM99.0902 70.5567C99.0902 69.0751 100.1 67.2702 101.346 66.5321C102.592 65.7887 103.607 66.3867 103.607 67.8683C103.607 69.3551 102.592 71.1544 101.346 71.898C100.1 72.636 99.0902 72.0383 99.0902 70.5567Z" fill="white"/>
<path d="M101.347 66.5324C100.101 67.2706 99.0908 69.0755 99.0908 70.5571C99.0908 72.0387 100.101 72.6365 101.347 71.8984C102.592 71.1548 103.608 69.3555 103.608 67.8686C103.608 66.387 102.592 65.789 101.347 66.5324Z" fill="#262C2A"/>
<path d="M100.341 72.7323C100.739 72.7323 101.163 72.6032 101.597 72.3445C103.005 71.5043 104.109 69.5429 104.109 67.8729C104.109 66.9679 103.785 66.2729 103.198 65.9281C102.607 65.5779 101.864 65.6371 101.1 66.0897C99.6973 66.9248 98.5928 68.8858 98.5928 70.5615C98.5928 71.4718 98.9179 72.1615 99.5042 72.5117C99.755 72.6571 100.038 72.7323 100.341 72.7323ZM102.356 66.7254C102.487 66.7254 102.597 66.7524 102.696 66.8116C102.958 66.9679 103.11 67.3504 103.11 67.8675C103.11 69.1607 102.188 70.8039 101.1 71.4504C100.666 71.7087 100.268 71.7681 100.006 71.6121C99.7442 71.4555 99.5927 71.0733 99.5927 70.5559C99.5927 69.2629 100.509 67.6197 101.597 66.9786C101.874 66.8116 102.136 66.7254 102.356 66.7254Z" fill="#262C2A"/>
<path d="M63.3886 98.2163C64.2417 98.2163 65.1737 97.9304 66.1314 97.3592C69.3392 95.4574 71.9506 90.8024 71.9506 86.9828C71.9506 85.0216 71.2809 83.545 70.0718 82.8285C68.8576 82.1067 67.2828 82.2467 65.6342 83.2273C62.4258 85.1345 59.8145 89.7894 59.8145 93.6037C59.8145 95.565 60.4847 97.0416 61.6932 97.7581C62.1961 98.0651 62.7715 98.2163 63.3886 98.2163ZM68.3604 83.405C68.8056 83.405 69.2084 83.5074 69.5644 83.7174C70.4541 84.2456 70.946 85.4039 70.946 86.9828C70.946 90.4742 68.5593 94.725 65.6285 96.4651C64.2994 97.2516 63.08 97.3969 62.1904 96.8692C61.3007 96.3409 60.8093 95.1826 60.8093 93.6037C60.8093 90.1183 63.1949 85.8616 66.1256 84.1162C66.9268 83.6474 67.6856 83.405 68.3604 83.405Z" fill="#262C2A"/>
<path d="M79.9991 88.0712L92.5696 75.2002L93.4644 75.7389C92.1147 77.1234 82.4956 86.9723 79.3711 90.1723C79.4917 89.8059 79.6117 89.4447 79.7214 89.0782C79.8157 88.7388 79.9099 88.4047 79.9991 88.0712Z" fill="#262C2A"/>
<path d="M51.9962 91.644C53.4665 86.601 56.2244 81.5961 59.6839 77.6791C61.573 75.5403 63.6666 73.7298 65.8751 72.4154C67.5128 71.4456 69.0887 70.8153 70.5641 70.519C72.7623 70.0717 74.7354 70.3411 76.3576 71.2463C77.2364 71.7419 78.0113 72.421 78.6547 73.2775C80.0575 75.1255 80.8792 77.8031 80.9106 81.1702C80.9158 81.2349 80.9158 81.2938 80.9158 81.3591C80.9158 83.525 80.5912 85.7927 79.9946 88.0663C79.9055 88.4004 79.8118 88.7345 79.7175 89.0687C79.6072 89.4351 79.4867 89.7957 79.3667 90.1622C76.9119 97.5377 71.7943 104.65 65.8751 108.167C61.7981 110.587 58.0982 110.862 55.3925 109.342L55.3086 109.294C53.7282 108.378 52.4879 106.843 51.7187 104.757C51.143 103.211 50.834 101.358 50.834 99.2348C50.8394 96.7889 51.2527 94.2141 51.9962 91.644ZM65.8751 96.9183C68.9521 95.0923 71.4429 90.6416 71.4429 86.9886C71.4429 83.3309 68.9521 81.8491 65.8751 83.6756C62.7981 85.5068 60.3067 89.9522 60.3067 93.6105C60.3067 97.263 62.7981 98.7448 65.8751 96.9183Z" fill="white"/>
<path d="M60.6037 69.3005C62.2362 68.3256 63.8116 67.6304 65.2876 67.2425L101.523 58.0459L102.769 58.7947C102.727 58.8055 102.685 58.8055 102.643 58.8217L65.539 68.2392C64.1522 68.6056 62.6602 69.2628 61.106 70.1894C52.9523 75.0332 46.3166 86.8587 46.3166 96.5565C46.3166 100.5 47.6092 104.326 49.671 106.13L47.3525 104.827C46.0703 102.645 45.3223 99.6384 45.3223 96.5565C45.3115 86.5357 52.1727 74.311 60.6037 69.3005Z" fill="#262C2A"/>
<path opacity="0.2" d="M18.3554 182.573C26.9341 182.573 33.8885 180.33 33.8885 177.563C33.8885 174.797 26.9341 172.554 18.3554 172.554C9.77672 172.554 2.82227 174.797 2.82227 177.563C2.82227 180.33 9.77672 182.573 18.3554 182.573Z" fill="black"/>
<path d="M27.329 167.992L27.3095 173.644C27.3031 175.714 25.9859 177.785 23.3387 179.361C18.0182 182.54 9.37569 182.54 4.0293 179.361C1.33663 177.758 -0.00646499 175.661 2.33957e-05 173.564L0.0194902 167.912C0.0130018 170.01 1.35609 172.107 4.04876 173.71C9.39518 176.89 18.0442 176.89 23.3581 173.71C26.0054 172.134 27.3225 170.07 27.329 167.992Z" fill="#D4E6FC"/>
<path d="M27.329 167.992L27.3095 173.644C27.3031 175.714 25.9859 177.785 23.3387 179.361C18.0182 182.54 9.37569 182.54 4.0293 179.361C1.33663 177.758 -0.00646499 175.661 2.33957e-05 173.564L0.0194902 167.912C0.0130018 170.01 1.35609 172.107 4.04876 173.71C9.39518 176.89 18.0442 176.89 23.3581 173.71C26.0054 172.134 27.3225 170.07 27.329 167.992Z" fill="#FFB444"/>
<path d="M23.3008 162.194C28.6472 165.374 28.6796 170.524 23.3592 173.71C18.0388 176.889 9.39626 176.889 4.04985 173.71C-1.29656 170.53 -1.329 165.381 3.99146 162.194C9.29895 159.022 17.9479 159.022 23.3008 162.194Z" fill="#FFDA44"/>
<path d="M35.88 158.026L34.6083 163.517C34.1411 165.528 32.4023 167.238 29.476 168.152C23.5976 170.003 15.1822 167.965 10.6727 163.61C8.40182 161.42 7.56482 159.055 8.03201 157.024L9.30374 151.534C8.83004 153.578 9.68007 155.936 11.9444 158.12C16.4474 162.475 24.8628 164.506 30.7477 162.662C33.674 161.747 35.4194 160.044 35.88 158.026Z" fill="#D4E6FC"/>
<path d="M35.88 158.026L34.6083 163.517C34.1411 165.528 32.4023 167.238 29.476 168.152C23.5976 170.003 15.1822 167.965 10.6727 163.61C8.40182 161.42 7.56482 159.055 8.03201 157.024L9.30374 151.534C8.83004 153.578 9.68007 155.936 11.9444 158.12C16.4474 162.475 24.8628 164.506 30.7477 162.662C33.674 161.747 35.4194 160.044 35.88 158.026Z" fill="#FFB444"/>
<path d="M33.2465 151.433C37.7494 155.789 36.6334 160.812 30.7549 162.662C24.8766 164.505 16.4611 162.474 11.9517 158.119C7.44879 153.765 8.56481 148.741 14.4432 146.891C20.3217 145.048 28.7436 147.078 33.2465 151.433Z" fill="#FFDA44"/>
<path d="M26.4263 133.058L28.0418 138.455C28.6323 140.432 27.9705 142.816 25.9007 145.127C21.7416 149.783 13.4885 152.428 7.4608 151.026C4.43072 150.324 2.54261 148.722 1.94568 146.724L0.330078 141.327C0.927008 143.331 2.81512 144.927 5.84514 145.628C11.8729 147.031 20.126 144.386 24.2851 139.731C26.3549 137.419 27.0231 135.041 26.4263 133.058Z" fill="#D4E6FC"/>
<path d="M26.4263 133.058L28.0418 138.455C28.6323 140.432 27.9705 142.816 25.9007 145.127C21.7416 149.783 13.4885 152.428 7.4608 151.026C4.43072 150.324 2.54261 148.722 1.94568 146.724L0.330078 141.327C0.927008 143.331 2.81512 144.927 5.84514 145.628C11.8729 147.031 20.126 144.386 24.2851 139.731C26.3549 137.419 27.0231 135.041 26.4263 133.058Z" fill="#FFB444"/>
<path d="M20.9121 128.757C26.9398 130.16 28.4516 135.069 24.2861 139.738C20.127 144.394 11.8738 147.039 5.84615 145.636C-0.181531 144.234 -1.69332 139.323 2.47221 134.655C6.63127 129.999 14.8844 127.354 20.9121 128.757Z" fill="#FFDA44"/>
<path d="M32.2795 122.077L31.157 127.607C30.7482 129.638 29.0483 131.388 26.148 132.39C20.315 134.401 11.8541 132.611 7.2344 128.382C4.91156 126.258 4.00968 123.92 4.42493 121.869L5.54743 116.339C5.13218 118.39 6.03404 120.727 8.35688 122.851C12.9766 127.073 21.4439 128.87 27.2705 126.859C30.1708 125.857 31.8707 124.1 32.2795 122.077Z" fill="#D4E6FC"/>
<path d="M32.2795 122.077L31.157 127.607C30.7482 129.638 29.0483 131.388 26.148 132.39C20.315 134.401 11.8541 132.611 7.2344 128.382C4.91156 126.258 4.00968 123.92 4.42493 121.869L5.54743 116.339C5.13218 118.39 6.03404 120.727 8.35688 122.851C12.9766 127.073 21.4439 128.87 27.2705 126.859C30.1708 125.857 31.8707 124.1 32.2795 122.077Z" fill="#FFB444"/>
<path d="M29.4701 115.565C34.0898 119.787 33.1036 124.843 27.2705 126.86C21.4375 128.87 12.9767 127.08 8.357 122.853C3.73727 118.631 4.72351 113.574 10.5565 111.557C16.3831 109.547 24.8504 111.343 29.4701 115.565Z" fill="#FFDA44"/>
<path d="M186.75 207.85C185.392 208.653 183.669 208.381 182.001 208.115C180.485 207.875 179.052 207.648 178.084 208.221C177.522 208.554 177.515 208.795 178.032 209.941C178.442 210.851 179.128 212.368 177.453 213.359C176.095 214.165 174.369 213.893 172.698 213.628C171.182 213.387 169.752 213.161 168.787 213.734C168.226 214.067 168.219 214.307 168.732 215.453C169.142 216.363 169.824 217.881 168.153 218.871C166.796 219.675 165.069 219.402 163.402 219.137C161.886 218.896 160.452 218.67 159.487 219.243C158.925 219.575 158.919 219.816 159.432 220.962C159.842 221.872 160.525 223.389 158.853 224.38C158.178 224.78 157.409 224.914 156.6 224.914C155.787 224.914 154.936 224.78 154.102 224.649C152.586 224.408 151.152 224.182 150.187 224.755C149.881 224.939 149.485 224.83 149.309 224.514C149.13 224.2 149.236 223.793 149.543 223.612C150.901 222.806 152.627 223.078 154.298 223.343C155.814 223.584 157.244 223.81 158.209 223.237C158.77 222.905 158.778 222.664 158.261 221.518C157.851 220.608 157.168 219.091 158.839 218.096C160.197 217.29 161.924 217.562 163.595 217.828C165.111 218.068 166.54 218.295 167.505 217.721C168.067 217.389 168.074 217.148 167.557 216.002C167.147 215.093 166.465 213.575 168.136 212.58C169.493 211.774 171.22 212.047 172.888 212.312C174.404 212.552 175.834 212.779 176.802 212.206C177.363 211.873 177.37 211.632 176.853 210.486C176.444 209.576 175.758 208.059 177.432 207.068C178.79 206.262 180.52 206.534 182.187 206.799C183.703 207.04 185.133 207.266 186.095 206.693C186.405 206.509 186.797 206.619 186.974 206.934C187.163 207.263 187.056 207.666 186.75 207.85Z" fill="#8E5FFF"/>
<path fill-rule="evenodd" clip-rule="evenodd" d="M144.992 187.129L40.4766 125.01V142.724L144.987 204.843L144.992 187.129Z" fill="#89E7FF"/>
<path fill-rule="evenodd" clip-rule="evenodd" d="M145.285 187.129L249.801 125.01V142.724L145.285 204.843V187.129Z" fill="#00CCFF"/>
<path fill-rule="evenodd" clip-rule="evenodd" d="M249.504 125.01L144.993 62.897L40.4766 125.01L144.993 187.129L249.504 125.01Z" fill="#F8F9FD"/>
<path opacity="0.2" d="M260.416 178.31C268.47 178.31 275 176.205 275 173.608C275 171.012 268.47 168.908 260.416 168.908C252.361 168.908 245.831 171.012 245.831 173.608C245.831 176.205 252.361 178.31 260.416 178.31Z" fill="black"/>
<path d="M268.841 164.62L268.822 169.923C268.815 171.862 267.58 173.809 265.093 175.293C260.097 178.282 251.983 178.282 246.961 175.293C244.434 173.789 243.174 171.822 243.181 169.849L243.2 164.545C243.194 166.519 244.454 168.485 246.981 169.99C252.003 172.979 260.122 172.979 265.112 169.99C267.593 168.512 268.834 166.565 268.841 164.62Z" fill="#FFB444"/>
<path d="M265.053 159.176C270.075 162.165 270.101 167 265.112 169.99C260.116 172.979 252.003 172.979 246.981 169.99C241.959 167 241.933 162.165 246.922 159.176C251.911 156.193 260.025 156.193 265.053 159.176Z" fill="#FFDA44"/>
<path d="M272.525 159.316L272.505 164.619C272.498 166.559 271.264 168.505 268.776 169.99C263.78 172.979 255.666 172.979 250.645 169.99C248.118 168.485 246.857 166.519 246.864 164.546L246.884 159.242C246.877 161.215 248.137 163.182 250.664 164.686C255.686 167.676 263.806 167.676 268.796 164.686C271.277 163.208 272.518 161.262 272.525 159.316Z" fill="#FFB444"/>
<path d="M268.743 153.872C273.765 156.862 273.791 161.697 268.802 164.686C263.806 167.676 255.693 167.676 250.671 164.686C245.649 161.697 245.624 156.862 250.613 153.872C255.595 150.89 263.716 150.89 268.743 153.872Z" fill="#FFDA44"/>
<path d="M264.632 154.012L264.613 159.316C264.606 161.255 263.372 163.202 260.884 164.686C255.888 167.675 247.774 167.675 242.753 164.686C240.225 163.182 238.965 161.215 238.972 159.242L238.991 153.939C238.985 155.912 240.245 157.878 242.772 159.383C247.794 162.372 255.914 162.372 260.903 159.383C263.391 157.905 264.632 155.958 264.632 154.012Z" fill="#FFB444"/>
<path d="M260.851 148.569C265.873 151.558 265.899 156.394 260.91 159.383C255.914 162.373 247.8 162.373 242.779 159.383C237.757 156.394 237.731 151.558 242.72 148.569C247.709 145.586 255.824 145.586 260.851 148.569Z" fill="#FFDA44"/>
<path d="M270.459 148.71L270.44 154.014C270.433 155.953 269.199 157.899 266.711 159.384C261.715 162.373 253.601 162.373 248.58 159.384C246.053 157.879 244.793 155.913 244.799 153.94L244.818 148.637C244.812 150.609 246.072 152.576 248.599 154.081C253.621 157.07 261.741 157.07 266.73 154.081C269.212 152.602 270.453 150.656 270.459 148.71Z" fill="#FFB444"/>
<path d="M266.671 143.267C271.693 146.255 271.719 151.092 266.73 154.08C261.734 157.071 253.621 157.071 248.599 154.08C243.577 151.092 243.551 146.255 248.54 143.267C253.529 140.284 261.65 140.284 266.671 143.267Z" fill="#FFDA44"/>
<path d="M113.561 104.812C113.498 105.599 113.44 106.38 113.394 107.129C113.44 106.364 113.498 105.588 113.561 104.812Z" fill="white"/>
<path d="M113.007 116.53C112.991 117.306 112.98 118.06 112.991 118.722C112.991 118.292 112.991 117.855 112.996 117.419C113.001 117.122 113.007 116.826 113.007 116.53Z" fill="white"/>
<path d="M112.985 119.299C112.985 119.671 113.006 120.038 113.048 120.404C113.011 120.005 112.99 119.413 112.99 118.723C112.985 118.917 112.985 119.105 112.985 119.299Z" fill="white"/>
<path d="M113.953 116.53C113.943 117.09 113.932 117.705 113.937 118.286C113.937 118.286 113.937 118.286 113.943 118.281C113.943 117.995 113.942 117.705 113.948 117.403C113.948 117.117 113.953 116.826 113.953 116.53Z" fill="#3A3A3A"/>
<path d="M114.026 113.594C114.026 113.508 114.032 113.416 114.032 113.33C114.032 113.427 114.026 113.513 114.026 113.594Z" fill="#3A3A3A"/>
<path d="M114.502 104.887C114.56 104.144 114.617 103.395 114.69 102.646C114.617 103.395 114.56 104.149 114.502 104.887C114.44 105.674 114.382 106.449 114.335 107.193C114.382 106.428 114.44 105.663 114.502 104.887Z" fill="#3A3A3A"/>
<path d="M114.299 90.0234C114.246 90.3787 114.194 90.7341 114.137 91.0953C114.194 90.7341 114.246 90.3787 114.299 90.0234Z" fill="#3A3A3A"/>
<path d="M116.696 87.0225C116.696 87.0225 116.696 87.0278 116.696 87.0225C116.513 88.1213 116.335 89.2201 116.167 90.3249C116.089 90.8531 116.005 91.3808 115.932 91.9037C116.005 91.3808 116.089 90.8531 116.167 90.3249C116.335 89.2201 116.513 88.1166 116.696 87.0225Z" fill="#3A3A3A"/>
<path d="M168.726 92.5164C168.658 92.4631 168.595 92.3934 168.543 92.3179C168.595 92.3981 168.658 92.4631 168.726 92.5164Z" fill="#3A3A3A"/>
<path d="M168.412 92.0596C168.438 92.1504 168.479 92.2306 168.532 92.3056C168.479 92.2306 168.438 92.1451 168.412 92.0596Z" fill="#3A3A3A"/>
<path d="M168.725 92.5234C168.793 92.5767 168.871 92.6201 168.949 92.6575C168.871 92.6201 168.793 92.5767 168.725 92.5234Z" fill="#3A3A3A"/>
<path d="M261.67 112.877C256.447 115.98 252.218 123.517 252.218 129.723C252.218 132.746 253.225 134.893 254.855 135.936L254.985 136.016C256.694 137.033 259.058 136.886 261.67 135.335C264.106 133.883 266.334 131.469 268.01 128.667C268.562 127.744 269.05 126.78 269.478 125.798C270.511 123.383 271.122 120.842 271.122 118.488C271.122 115.385 270.063 113.211 268.354 112.195L268.251 112.135C266.542 111.185 264.223 111.359 261.67 112.877Z" fill="#FFDA44"/>
<path d="M248.345 128.492C248.573 131.006 249.567 132.792 251.068 133.682L254.861 135.935C253.231 134.892 252.224 132.739 252.224 129.722C252.224 123.516 256.453 115.973 261.676 112.876C264.229 111.358 266.554 111.184 268.25 112.134L264.43 109.86C262.722 108.844 260.364 108.991 257.752 110.542C253.218 113.237 249.43 119.283 248.514 124.887C248.371 125.736 248.3 126.573 248.3 127.382C248.293 127.769 248.313 128.145 248.345 128.492Z" fill="#FFB444"/>
<path d="M76.7362 248.121C89.2204 248.121 99.34 244.468 99.34 239.962C99.34 235.455 89.2204 231.802 76.7362 231.802C64.2526 231.802 54.1328 235.455 54.1328 239.962C54.1328 244.468 64.2526 248.121 76.7362 248.121Z" fill="#CCCCCC"/>
<path d="M84.6523 227.102C84.6718 226.366 84.5655 225.619 84.3044 224.894L87.8328 233.353C89.631 237.274 87.9397 241.623 82.7576 244.699C78.9194 246.988 73.8824 248.122 68.8557 248.122C63.809 248.122 58.7823 246.978 54.9442 244.699C49.7721 241.623 48.0897 237.274 49.8786 233.353L53.5131 224.615C53.2136 225.351 53.0494 226.107 53.0494 226.864C53.0494 229.282 54.5865 231.671 57.6801 233.512C63.8576 237.184 73.8733 237.184 80.0411 233.512C82.9993 231.751 84.5558 229.442 84.6523 227.102Z" fill="#FC5DA7"/>
<path d="M84.2951 224.893C84.5557 225.62 84.6717 226.366 84.6431 227.103C84.5465 229.432 82.99 231.75 80.0124 233.512C73.8538 237.185 63.8289 237.185 57.6514 233.512C54.5576 231.671 53.0205 229.282 53.0205 226.864C53.0205 226.108 53.1847 225.351 53.4942 224.614C53.4847 224.614 68.8362 187.681 68.8362 187.681L84.1785 224.614C84.2368 224.704 84.2757 224.804 84.2951 224.893Z" fill="#FF85BE"/>
<path d="M94.035 201.582C99.0955 201.582 103.198 200.026 103.198 198.107C103.198 196.188 99.0955 194.632 94.035 194.632C88.9752 194.632 84.873 196.188 84.873 198.107C84.873 200.026 88.9752 201.582 94.035 201.582Z" fill="#CCCCCC"/>
<path d="M83.4326 163.638V196.178C83.4326 198.801 86.6068 200.929 90.5301 200.929C94.4477 200.929 97.627 198.801 97.627 196.178V163.638H83.4326Z" fill="#89E7FF"/>
<path d="M90.5237 168.387C94.443 168.387 97.6206 166.261 97.6206 163.638C97.6206 161.014 94.443 158.887 90.5237 158.887C86.6038 158.887 83.4268 161.014 83.4268 163.638C83.4268 166.261 86.6038 168.387 90.5237 168.387Z" fill="#00CCFF"/>
<path d="M168.401 109.957C168.401 99.6521 160.285 91.2983 150.274 91.2983C140.263 91.2983 132.147 99.6521 132.147 109.957H132.161C132.154 110.067 132.147 110.173 132.147 110.283C132.147 116.232 140.263 121.056 150.274 121.056C160.285 121.056 168.401 116.232 168.401 110.283C168.401 110.173 168.391 110.063 168.387 109.957H168.401Z" fill="#89E7FF"/>
<path d="M148.361 113.11C148.361 104.043 141.221 96.6934 132.413 96.6934C123.604 96.6934 116.464 104.043 116.464 113.11H116.474C116.471 113.206 116.464 113.302 116.464 113.397C116.464 118.633 123.604 122.876 132.413 122.876C141.221 122.876 148.361 118.633 148.361 113.397C148.361 113.302 148.354 113.206 148.348 113.11H148.361Z" fill="#EDFCFF"/>
<path d="M140.301 127.467L129.814 121.344C129.814 121.344 136.062 101.114 136.693 76.3796C138.96 76.3796 140.301 76.4541 140.301 76.4541V127.467Z" fill="#89E7FF"/>
<path d="M140.301 127.466L150.787 121.343C150.787 121.343 144.54 101.114 143.909 76.3789C141.641 76.3789 140.301 76.4534 140.301 76.4534V127.466Z" fill="#00CCFF"/>
<path d="M183.978 125.498C183.978 113.391 174.442 103.58 162.684 103.58C150.922 103.58 141.387 113.395 141.387 125.498H141.404C141.397 125.626 141.387 125.753 141.387 125.881C141.387 132.869 150.922 138.538 162.684 138.538C174.446 138.538 183.978 132.873 183.978 125.881C183.978 125.753 183.967 125.626 183.96 125.498H183.978Z" fill="#D9F8FF"/>
<path d="M132.147 123.195C132.147 114.476 125.279 107.406 116.809 107.406C108.338 107.406 101.47 114.476 101.47 123.195H101.48C101.477 123.287 101.47 123.379 101.47 123.472C101.47 128.505 108.338 132.588 116.809 132.588C125.279 132.588 132.147 128.505 132.147 123.472C132.147 123.379 132.14 123.287 132.137 123.195H132.147Z" fill="#E0F9FF"/>
<path d="M150.274 133.003C150.274 122.848 142.276 114.618 132.413 114.618C122.547 114.618 114.552 122.851 114.552 133.003H114.566C114.559 133.11 114.552 133.216 114.552 133.326C114.552 139.19 122.55 143.94 132.413 143.943C142.279 143.943 150.274 139.19 150.274 133.326C150.274 133.22 150.268 133.11 150.261 133.003H150.274Z" fill="#89E7FF"/>
<path d="M174.122 141.744C174.122 132.627 166.943 125.238 158.087 125.238C149.23 125.238 142.052 132.627 142.052 141.744H142.066C142.062 141.84 142.052 141.935 142.052 142.031C142.052 147.295 149.23 151.563 158.087 151.563C166.943 151.563 174.122 147.295 174.122 142.031C174.122 141.935 174.115 141.84 174.108 141.744H174.122Z" fill="#EDFCFF"/>
<path d="M121.623 139.09C121.623 133.567 117.274 129.091 111.908 129.091C106.542 129.091 102.193 133.567 102.193 139.09H102.2C102.197 139.147 102.193 139.208 102.193 139.264C102.193 142.453 106.542 145.039 111.908 145.039C117.274 145.039 121.623 142.453 121.623 139.264C121.623 139.204 121.619 139.147 121.616 139.09H121.623Z" fill="#EDFCFF"/>
<path d="M158.067 70.1699V80.0868V83.9072V84.1216L173.382 93.2219C173.382 88.7006 169.46 81.1718 164.422 75.5902C164.126 75.2646 163.829 74.9471 163.529 74.6336C161.778 72.8265 159.922 71.2757 158.067 70.1699Z" fill="#FFDA44"/>
<path d="M163.898 61.6886L167.127 59.7744C167.127 56.8412 165.481 54.6135 162.948 53.5122C163.145 54.89 163.325 56.2638 163.481 57.625C163.641 58.9906 163.782 60.3477 163.898 61.6886Z" fill="#FFDA44"/>
<path d="M150.559 86.9021C153.248 86.2544 155.764 85.2806 157.948 83.9856C157.988 83.9608 158.032 83.9361 158.073 83.9113V80.0913C158.032 80.1161 157.988 80.1409 157.948 80.1652C156.585 80.9741 155.091 81.6592 153.504 82.2159C153.188 82.3272 152.867 82.4344 152.542 82.5335C151.893 82.7357 151.232 82.9168 150.563 83.078C147.874 83.7257 145.017 84.0473 142.16 84.0473C139.303 84.0473 136.442 83.7257 133.753 83.078C133.08 82.9168 132.418 82.7357 131.77 82.5335C131.445 82.4303 131.124 82.3272 130.808 82.2159C129.221 81.6592 127.726 80.9741 126.364 80.1652C126.32 80.1409 126.276 80.1161 126.235 80.0913V83.9113C126.276 83.9361 126.32 83.9608 126.364 83.9856C130.723 86.576 136.438 87.8754 142.156 87.8754C145.013 87.8754 147.87 87.5498 150.559 86.9021Z" fill="#00CCFF"/>
<path d="M154.678 50.7447C154.682 50.7402 154.682 50.7402 154.686 50.7361C154.874 50.5505 155.055 50.3564 155.231 50.142C156.265 48.9047 156.951 47.3783 157.275 45.782C157.327 45.5181 157.371 45.2496 157.407 44.9774C157.475 44.4411 157.504 43.8966 157.491 43.3604C157.459 42.0154 157.171 40.6995 156.626 39.532C156.405 39.0658 156.145 38.6205 155.844 38.2119C155.688 38.0017 155.528 37.8076 155.36 37.6223C155.319 37.5768 155.275 37.5398 155.231 37.4985C155.099 37.3623 154.967 37.2304 154.83 37.1106C154.79 37.0775 154.746 37.0487 154.706 37.0156C154.562 36.8961 154.418 36.7848 154.265 36.6817C154.234 36.661 154.201 36.6443 154.165 36.6237C154.001 36.5166 153.837 36.4174 153.664 36.3349C153.645 36.3228 153.62 36.3186 153.6 36.3061C153.416 36.2154 153.232 36.1372 153.039 36.0668C153.031 36.0629 153.019 36.0629 153.011 36.0586C152.807 35.9885 152.602 35.9309 152.398 35.8854C151.969 35.7904 151.529 35.7535 151.088 35.7741C150.679 35.7904 150.27 35.8523 149.862 35.9636H149.858C149.657 36.0174 149.461 36.0835 149.265 36.1617C149.249 36.1699 149.233 36.1742 149.216 36.1823C149.032 36.2567 148.852 36.3392 148.672 36.4299C148.635 36.4505 148.603 36.4711 148.568 36.4917C148.407 36.5785 148.251 36.6692 148.095 36.7723C148.034 36.8136 147.974 36.863 147.914 36.9043C147.786 36.995 147.658 37.086 147.533 37.1849C147.437 37.2631 147.35 37.3499 147.253 37.4367C147.165 37.5149 147.073 37.5892 146.989 37.6756C146.808 37.8531 146.636 38.043 146.468 38.245C144.232 40.9264 143.631 44.9568 144.78 48.1372C145.045 48.8714 145.406 49.5605 145.862 50.1753C146.003 50.369 146.155 50.5465 146.307 50.7199C146.359 50.7775 146.411 50.8271 146.464 50.8802C146.568 50.9919 146.676 51.0991 146.788 51.1982C146.852 51.2559 146.916 51.3095 146.985 51.3635C147.089 51.45 147.193 51.5324 147.297 51.6068C147.369 51.6563 147.441 51.7054 147.514 51.7554C147.618 51.8252 147.726 51.8874 147.834 51.9491C147.91 51.9905 147.982 52.0315 148.062 52.0729C148.175 52.1261 148.287 52.1761 148.399 52.2256C148.475 52.2585 148.551 52.2914 148.628 52.3202C148.748 52.3657 148.872 52.4031 148.996 52.4355C149.064 52.4562 149.132 52.481 149.204 52.4977C149.393 52.5432 149.585 52.5801 149.777 52.6008C149.833 52.6094 149.894 52.6094 149.954 52.613C150.094 52.6256 150.23 52.6378 150.371 52.6378C150.459 52.6378 150.547 52.6296 150.631 52.6296C150.743 52.6256 150.851 52.6211 150.964 52.6094C151.06 52.6008 151.152 52.5842 151.248 52.5679C151.352 52.5513 151.457 52.5351 151.561 52.5098C151.657 52.4891 151.757 52.4648 151.853 52.4355C151.954 52.4067 152.054 52.3779 152.154 52.3409C152.25 52.3081 152.35 52.2747 152.446 52.2378C152.546 52.1968 152.643 52.1554 152.743 52.1099C152.839 52.0644 152.935 52.0229 153.031 51.9738C153.131 51.9198 153.228 51.8621 153.328 51.8049C153.42 51.7509 153.509 51.7018 153.596 51.6437C153.773 51.5284 153.945 51.4005 154.118 51.264C154.301 51.0951 154.494 50.9262 154.678 50.7447Z" fill="#F8F9FD"/>
<path d="M135.047 20.8034C137.01 21.9708 139.583 22.5525 142.155 22.5525C144.728 22.5525 147.301 21.9708 149.26 20.8034C151.52 19.4586 152.478 17.6394 152.142 15.8862L152.137 15.882C149.24 9.73136 145.886 4.3232 142.155 0C138.421 4.3232 135.071 9.73136 132.169 15.882V15.8862C131.829 17.6394 132.787 19.4586 135.047 20.8034Z" fill="#FFDA44"/>
<path d="M126.239 78.6725V70.0264C124.384 71.1317 122.529 72.6829 120.782 74.4859C120.477 74.7989 120.181 75.121 119.884 75.4426C114.847 81.0282 110.924 88.5528 110.924 93.0735L126.239 83.9734V83.759V79.9391V78.6725Z" fill="#FFDA44"/>
<path d="M121.362 53.5122C118.833 54.6099 117.183 56.8412 117.183 59.7744L120.408 61.6886H120.412C120.533 60.3437 120.669 58.9906 120.829 57.625C120.986 56.2638 121.162 54.89 121.362 53.5122Z" fill="#FFDA44"/>
<path d="M164.351 68.433C164.271 66.6012 164.115 64.1221 163.898 61.6885C163.778 60.3431 163.642 58.9905 163.481 57.6249C163.325 56.2592 163.145 54.89 162.949 53.5121H162.945C161.289 41.9737 158.233 30.0271 153.728 19.4376V19.4335C153.215 18.2289 152.686 17.0408 152.141 15.8857C152.478 17.639 151.52 19.4582 149.26 20.803C147.301 21.9705 144.728 22.5521 142.155 22.5521C139.583 22.5521 137.011 21.9705 135.047 20.803C132.787 19.4582 131.829 17.639 132.17 15.8857C131.621 17.0408 131.092 18.2289 130.579 19.4335V19.4376C127.049 27.7334 124.412 36.8625 122.637 45.9753C122.553 46.392 122.473 46.8127 122.396 47.2334C122.316 47.654 122.24 48.0747 122.168 48.4999C122.092 48.9206 122.02 49.3417 121.947 49.766C121.807 50.6079 121.667 51.4578 121.543 52.3077C121.483 52.7118 121.419 53.1158 121.363 53.5202C121.166 54.8985 120.986 56.2718 120.83 57.633C120.673 58.9986 120.533 60.3517 120.413 61.6966C120.409 61.7255 120.405 61.7543 120.405 61.7872C120.349 62.3646 120.305 62.9465 120.26 63.5199C120.213 64.114 120.169 64.7036 120.132 65.2937L120.032 66.9561C120.016 67.1913 120.008 67.4309 119.996 67.67C119.996 67.6908 119.992 67.707 119.992 67.7277C119.98 67.9669 119.972 68.2065 119.96 68.4452C119.956 68.5443 119.948 68.6682 119.944 68.8209C119.94 68.8952 119.936 68.9776 119.932 69.0686C119.92 69.3285 119.912 69.6415 119.9 69.9843C119.896 70.0708 119.892 70.1572 119.892 70.2397C119.888 70.273 119.888 70.3018 119.888 70.3392C119.884 70.4667 119.88 70.5905 119.876 70.7104C119.872 70.8378 119.868 70.9662 119.864 71.0937C119.86 71.2261 119.856 71.358 119.852 71.49C119.852 71.5022 119.848 71.5103 119.852 71.527C119.9 72.0548 120.004 72.5832 120.156 73.107C120 72.5832 119.9 72.0548 119.852 71.527C119.843 71.7787 119.84 72.0341 119.832 72.2859C119.828 72.3521 119.828 72.4224 119.828 72.4881C119.828 72.7151 119.824 72.9417 119.82 73.1687C119.815 73.5029 119.815 73.8371 119.815 74.1668C119.815 74.6952 119.832 75.1487 119.86 75.4541C119.864 75.5077 119.872 75.5532 119.876 75.5983C120.172 75.2726 120.469 74.9551 120.774 74.6416C122.521 72.835 124.376 71.2837 126.231 70.182V78.8286V80.0993C126.271 80.124 126.315 80.1488 126.359 80.1736C127.722 80.9821 129.216 81.6667 130.803 82.2239C131.12 82.3351 131.44 82.4423 131.765 82.5414C132.414 82.7432 133.075 82.9252 133.749 83.086C136.437 83.7337 139.294 84.0553 142.152 84.0553C145.008 84.0553 147.866 83.7337 150.554 83.086C151.228 82.9252 151.889 82.7432 152.534 82.5414C152.858 82.4383 153.179 82.3351 153.496 82.2239C155.082 81.6667 156.577 80.9821 157.94 80.1736C157.98 80.1488 158.024 80.124 158.064 80.0993V70.182C159.919 71.2878 161.775 72.8386 163.526 74.6416C164.042 73.6268 164.351 72.5787 164.451 71.527C164.423 70.178 164.375 68.924 164.351 68.433ZM152.23 72.2692C152.514 71.4071 152.767 70.5455 152.995 69.6789C152.767 70.541 152.514 71.4071 152.23 72.2692ZM157.407 44.9812C157.375 45.2493 157.331 45.5177 157.274 45.7857C156.95 47.382 156.265 48.9084 155.231 50.1462C155.055 50.3561 154.87 50.5543 154.686 50.7398C154.682 50.7443 154.682 50.7443 154.678 50.7479C154.493 50.9295 154.301 51.0988 154.109 51.2515C153.937 51.3875 153.765 51.5154 153.588 51.6308C153.5 51.6889 153.408 51.7384 153.32 51.792C153.219 51.8497 153.123 51.9114 153.023 51.965C152.927 52.0145 152.83 52.0559 152.735 52.1014C152.638 52.1465 152.538 52.192 152.438 52.2289C152.342 52.2663 152.242 52.3032 152.146 52.3366C152.046 52.3694 151.945 52.4023 151.845 52.4311C151.748 52.46 151.653 52.4807 151.552 52.5055C151.448 52.5302 151.344 52.5469 151.24 52.5631C151.144 52.5798 151.051 52.5919 150.955 52.6046C150.843 52.6172 150.731 52.6208 150.623 52.6253C150.534 52.6293 150.446 52.6374 150.362 52.6334C150.222 52.6334 150.082 52.6208 149.945 52.6086C149.889 52.6046 149.829 52.6046 149.769 52.5964C149.577 52.5712 149.385 52.5383 149.196 52.4933C149.128 52.4766 149.06 52.4519 148.988 52.4311C148.863 52.3983 148.74 52.3613 148.619 52.3158C148.543 52.287 148.467 52.2537 148.391 52.2208C148.278 52.1758 148.166 52.1258 148.054 52.0681C147.978 52.0312 147.902 51.9902 147.826 51.9442C147.718 51.8825 147.609 51.8208 147.505 51.7506C147.433 51.7051 147.361 51.6555 147.289 51.6019C147.18 51.5236 147.08 51.4411 146.976 51.3587C146.912 51.3051 146.844 51.2515 146.78 51.1939C146.668 51.0943 146.563 50.9876 146.455 50.8763C146.403 50.8223 146.351 50.7732 146.299 50.7151C146.147 50.5462 145.995 50.3642 145.854 50.1705C145.401 49.5561 145.041 48.867 144.772 48.1328C143.618 44.952 144.219 40.926 146.459 38.2403C146.628 38.0383 146.804 37.8484 146.98 37.6713C147.068 37.5845 147.157 37.5101 147.245 37.4319C147.337 37.3494 147.429 37.2587 147.525 37.1801C147.65 37.077 147.777 36.9906 147.906 36.8996C147.966 36.8587 148.026 36.8088 148.086 36.7676C148.242 36.6645 148.399 36.5738 148.559 36.4874C148.595 36.4668 148.627 36.4461 148.663 36.4255C148.843 36.3305 149.024 36.252 149.208 36.1779C149.224 36.1694 149.24 36.1655 149.256 36.1573C149.452 36.0788 149.649 36.013 149.849 35.9593H149.853C150.258 35.8479 150.671 35.786 151.079 35.7693C151.521 35.753 151.957 35.79 152.39 35.8807C152.598 35.9262 152.802 35.9838 153.003 36.0542C153.011 36.0581 153.023 36.0581 153.031 36.0624C153.219 36.1282 153.408 36.2107 153.592 36.3017C153.612 36.3099 153.636 36.3181 153.656 36.3305C153.824 36.4169 153.993 36.5162 154.157 36.6193C154.189 36.6399 154.225 36.6563 154.257 36.6769C154.409 36.7801 154.554 36.8914 154.698 37.0112C154.738 37.0439 154.782 37.0731 154.822 37.1058C154.959 37.2257 155.091 37.3576 155.223 37.4938C155.263 37.535 155.307 37.572 155.351 37.6176C155.519 37.7989 155.684 37.997 155.836 38.2076C156.141 38.6201 156.401 39.0614 156.617 39.5276C157.166 40.6948 157.451 42.0149 157.483 43.3556C157.503 43.9044 157.475 44.4449 157.407 44.9812Z" fill="#8E5FFF"/>
</svg>
